<svg width="394" height="394" viewBox="0 0 394 394" fill="none" xmlns="http://www.w3.org/2000/svg">
<path d="M394 197C394 305.8 305.8 394 197 394C88.1999 394 0 305.8 0 197C0 88.1999 88.1999 0 197 0C305.8 0 394 88.1999 394 197ZM38.7331 197C38.7331 284.408 109.592 355.267 197 355.267C284.408 355.267 355.267 284.408 355.267 197C355.267 109.592 284.408 38.7331 197 38.7331C109.592 38.7331 38.7331 109.592 38.7331 197Z" fill="#D9D9D9"/>
<path d="M367.512 162.503C369.711 160.833 370.139 157.697 368.469 155.497C366.799 153.298 363.663 152.87 361.463 154.54L367.512 162.503ZM298.247 191.1C314.658 188.73 326.398 185.903 336.91 181.42C347.426 176.936 356.448 170.906 367.512 162.503L361.463 154.54C350.619 162.775 342.37 168.22 332.987 172.221C323.601 176.224 312.817 178.892 296.818 181.203L298.247 191.1Z" fill="#A1A1A1"/>
<path d="M323.348 149.793C324.717 148.429 324.721 146.213 323.356 144.844C321.992 143.474 319.776 143.471 318.406 144.835L323.348 149.793ZM285.216 157.51C284.349 160.901 284.351 160.901 284.352 160.902C284.353 160.902 284.355 160.902 284.356 160.903C284.359 160.903 284.361 160.904 284.365 160.905C284.371 160.906 284.379 160.908 284.388 160.911C284.406 160.915 284.429 160.921 284.456 160.927C284.512 160.941 284.586 160.958 284.68 160.979C284.867 161.021 285.129 161.077 285.459 161.14C286.12 161.266 287.057 161.422 288.221 161.555C290.545 161.821 293.8 162 297.577 161.661C305.14 160.981 314.908 158.204 323.348 149.793L318.406 144.835C311.426 151.792 303.363 154.113 296.95 154.689C293.739 154.977 290.971 154.824 289.017 154.6C288.043 154.489 287.278 154.361 286.772 154.264C286.519 154.216 286.33 154.175 286.213 154.149C286.155 154.136 286.114 154.126 286.092 154.121C286.081 154.118 286.074 154.117 286.073 154.116C286.072 154.116 286.072 154.116 286.074 154.117C286.075 154.117 286.076 154.117 286.077 154.117C286.078 154.118 286.079 154.118 286.079 154.118C286.081 154.118 286.082 154.119 285.216 157.51Z" fill="#A1A1A1"/>
<path d="M343.919 156.439C345.615 155.023 345.842 152.5 344.426 150.804C343.01 149.109 340.487 148.882 338.792 150.298L343.919 156.439ZM292.928 163.366C291.694 167.17 291.696 167.171 291.697 167.172C291.698 167.172 291.7 167.172 291.702 167.173C291.705 167.174 291.708 167.175 291.712 167.176C291.719 167.179 291.729 167.182 291.74 167.185C291.761 167.192 291.789 167.201 291.824 167.211C291.893 167.233 291.987 167.261 292.105 167.296C292.341 167.365 292.675 167.459 293.099 167.568C293.945 167.787 295.153 168.069 296.663 168.343C299.677 168.89 303.921 169.409 308.905 169.31C318.88 169.113 331.951 166.432 343.919 156.439L338.792 150.298C328.585 158.821 317.442 161.139 308.747 161.312C304.396 161.398 300.692 160.944 298.091 160.472C296.793 160.236 295.777 159.998 295.101 159.823C294.763 159.736 294.512 159.665 294.353 159.618C294.273 159.595 294.217 159.578 294.185 159.568C294.169 159.563 294.159 159.56 294.156 159.559C294.154 159.558 294.153 159.558 294.155 159.558C294.155 159.559 294.156 159.559 294.158 159.559C294.158 159.56 294.16 159.56 294.16 159.56C294.162 159.561 294.163 159.561 292.928 163.366Z" fill="#A1A1A1"/>
<path d="M303.098 146.875C304.7 145.793 305.121 143.617 304.038 142.015C302.956 140.414 300.78 139.993 299.179 141.076L303.098 146.875ZM265.2 150.2C265.695 150.912 266.41 151.491 267.001 151.905C267.675 152.378 268.512 152.859 269.495 153.302C271.467 154.193 274.11 154.973 277.354 155.209C283.899 155.686 292.649 153.937 303.098 146.875L299.179 141.076C289.833 147.392 282.617 148.574 277.863 148.227C275.457 148.052 273.616 147.483 272.376 146.923C271.752 146.641 271.301 146.371 271.018 146.173C270.651 145.915 270.738 145.903 270.95 146.208L265.2 150.2Z" fill="#A1A1A1"/>
<path d="M58.9636 196.319C66.9955 195.112 87.0151 190.138 103.787 169.883" stroke="#A1A1A1" stroke-width="10" stroke-linecap="round"/>
<circle cx="210.652" cy="196.107" r="21.9528" transform="rotate(-35 210.652 196.107)" fill="#A1A1A1"/>
<circle cx="210.652" cy="196.107" r="21.9528" transform="rotate(-35 210.652 196.107)" fill="#A1A1A1"/>
<circle cx="219.188" cy="189.188" r="5.87908" transform="rotate(-35 219.188 189.188)" fill="#F2F2F2"/>
<circle cx="195.651" cy="187.543" r="40.0636" transform="rotate(-35 195.651 187.543)" stroke="#A1A1A1" stroke-width="9"/>
<path d="M312.013 187.825C312.013 187.825 268.571 117.983 196.167 117.983C123.763 117.983 80.321 187.825 80.321 187.825C80.321 187.825 123.763 257.667 196.167 257.667C268.571 257.667 312.013 187.825 312.013 187.825ZM97.307 187.825C104.309 178.493 112.362 169.802 121.345 161.882C139.982 145.514 165.468 130.682 196.167 130.682C226.866 130.682 252.338 145.514 271.004 161.882C279.987 169.802 288.04 178.493 295.042 187.825C294.202 188.93 293.275 190.149 292.218 191.482C287.367 197.578 280.199 205.705 271.004 213.768C252.338 230.137 226.852 244.968 196.167 244.968C165.468 244.968 139.996 230.137 121.331 213.768C112.347 205.848 104.309 197.157 97.307 187.825Z" fill="#A1A1A1"/>
<path d="M244.676 128.731C300.575 149.496 325.137 177.182 362.404 157.955L336.664 175.617L305.329 184.011C279.323 162.722 227.736 122.438 244.676 128.731Z" fill="#A1A1A1"/>
</svg>
