<svg width="750" height="1000" viewBox="0 0 750 1000" fill="none" xmlns="http://www.w3.org/2000/svg">
<rect x="223.091" y="147.62" width="169.873" height="237.822" rx="12.463" transform="rotate(-16.4107 223.091 147.62)" fill="#D9D9D9"/>
<rect x="360.38" y="119.613" width="169.873" height="237.822" rx="12.463" transform="rotate(11.3878 360.38 119.613)" fill="#A1A1A1"/>
<path d="M177.781 519.58C177.429 516.028 175.917 513.268 173.246 511.301C170.575 509.334 166.949 508.351 162.369 508.351C159.258 508.351 156.63 508.791 154.487 509.672C152.344 510.523 150.7 511.712 149.556 513.239C148.44 514.765 147.882 516.497 147.882 518.435C147.824 520.049 148.161 521.458 148.895 522.662C149.658 523.866 150.7 524.908 152.021 525.789C153.343 526.64 154.869 527.388 156.601 528.034C158.333 528.651 160.182 529.179 162.149 529.619L170.252 531.557C174.185 532.438 177.796 533.612 181.084 535.08C184.372 536.548 187.219 538.353 189.627 540.496C192.034 542.639 193.898 545.164 195.219 548.07C196.569 550.976 197.259 554.308 197.289 558.065C197.259 563.584 195.85 568.369 193.061 572.421C190.302 576.442 186.309 579.569 181.084 581.8C175.888 584.002 169.62 585.102 162.281 585.102C155.001 585.102 148.66 583.987 143.259 581.756C137.887 579.525 133.689 576.222 130.665 571.848C127.671 567.445 126.1 561.999 125.953 555.512H144.404C144.609 558.535 145.475 561.06 147.002 563.085C148.557 565.082 150.627 566.593 153.21 567.621C155.823 568.619 158.773 569.118 162.061 569.118C165.29 569.118 168.094 568.648 170.472 567.709C172.879 566.77 174.743 565.463 176.064 563.79C177.385 562.117 178.046 560.194 178.046 558.021C178.046 555.996 177.444 554.293 176.24 552.914C175.066 551.534 173.334 550.36 171.044 549.391C168.784 548.422 166.01 547.541 162.722 546.749L152.902 544.283C145.299 542.433 139.296 539.542 134.892 535.608C130.489 531.674 128.302 526.376 128.331 519.712C128.302 514.252 129.755 509.481 132.691 505.401C135.655 501.32 139.721 498.135 144.888 495.845C150.055 493.556 155.926 492.411 162.502 492.411C169.195 492.411 175.037 493.556 180.027 495.845C185.047 498.135 188.951 501.32 191.74 505.401C194.529 509.481 195.968 514.208 196.056 519.58H177.781ZM230.413 583.825L204.609 493.644H225.437L240.365 556.304H241.113L257.582 493.644H275.416L291.841 556.436H292.633L307.561 493.644H328.389L302.585 583.825H284.003L266.829 524.864H266.125L248.996 583.825H230.413ZM357.661 493.644V583.825H338.594V493.644H357.661ZM369.913 509.364V493.644H443.979V509.364H416.369V583.825H397.523V509.364H369.913ZM531.628 525.216H512.341C511.989 522.721 511.27 520.504 510.184 518.567C509.098 516.6 507.703 514.927 506.001 513.547C504.298 512.167 502.331 511.11 500.1 510.377C497.898 509.643 495.506 509.276 492.922 509.276C488.255 509.276 484.189 510.435 480.725 512.754C477.261 515.044 474.575 518.391 472.667 522.794C470.759 527.168 469.805 532.482 469.805 538.735C469.805 545.164 470.759 550.565 472.667 554.939C474.604 559.313 477.305 562.616 480.769 564.847C484.233 567.078 488.24 568.193 492.79 568.193C495.344 568.193 497.707 567.856 499.88 567.181C502.082 566.505 504.034 565.522 505.736 564.23C507.439 562.909 508.848 561.309 509.964 559.431C511.108 557.552 511.901 555.409 512.341 553.002L531.628 553.09C531.129 557.229 529.882 561.221 527.885 565.067C525.919 568.883 523.262 572.303 519.915 575.327C516.598 578.321 512.635 580.699 508.026 582.46C503.447 584.192 498.265 585.058 492.482 585.058C484.439 585.058 477.246 583.238 470.905 579.598C464.594 575.958 459.603 570.689 455.934 563.79C452.294 556.891 450.474 548.539 450.474 538.735C450.474 528.9 452.323 520.534 456.022 513.635C459.721 506.736 464.741 501.482 471.081 497.871C477.422 494.231 484.556 492.411 492.482 492.411C497.707 492.411 502.551 493.145 507.013 494.612C511.505 496.08 515.483 498.223 518.947 501.041C522.411 503.83 525.229 507.25 527.401 511.301C529.603 515.352 531.012 519.991 531.628 525.216ZM545.301 583.825V493.644H564.368V530.852H603.074V493.644H622.096V583.825H603.074V546.573H564.368V583.825H545.301Z" fill="#A1A1A1"/>
</svg>
