<svg width="750" height="1000" viewBox="0 0 750 1000" fill="none" xmlns="http://www.w3.org/2000/svg">
<path d="M375.856 258.526L376.703 257.258L376.167 255.83L352.645 193.175L382.281 156.168C419.434 135.085 471.671 153.654 486.753 195.933C501.631 237.641 480.721 304.604 367.038 380.656L344.478 305.54L375.856 258.526ZM245.733 191.392C263.184 151.502 314.71 135.211 350.601 157.481L322.865 190.732L321.756 192.061L322.365 193.682L346.025 256.705L322.489 303.723L321.891 304.919L322.388 306.16L347.843 369.718C244.136 295.413 228.484 230.823 245.733 191.392Z" fill="black" stroke="black" stroke-width="5.94799"/>
<path d="M91.9106 589.068V498.887H128.019C134.653 498.887 140.187 499.87 144.619 501.837C149.052 503.804 152.384 506.534 154.615 510.027C156.846 513.491 157.962 517.484 157.962 522.004C157.962 525.527 157.257 528.624 155.848 531.296C154.439 533.938 152.501 536.11 150.036 537.813C147.599 539.486 144.81 540.675 141.669 541.379V542.26C145.104 542.407 148.318 543.376 151.313 545.166C154.336 546.957 156.787 549.467 158.666 552.696C160.545 555.896 161.484 559.712 161.484 564.145C161.484 568.93 160.296 573.201 157.918 576.959C155.569 580.687 152.091 583.637 147.482 585.81C142.873 587.982 137.192 589.068 130.44 589.068H91.9106ZM110.977 573.48H126.521C131.835 573.48 135.71 572.468 138.146 570.442C140.583 568.387 141.801 565.657 141.801 562.252C141.801 559.756 141.199 557.555 139.996 555.646C138.792 553.738 137.075 552.241 134.844 551.155C132.642 550.069 130.015 549.526 126.962 549.526H110.977V573.48ZM110.977 536.624H125.112C127.725 536.624 130.044 536.169 132.07 535.259C134.125 534.319 135.739 532.998 136.913 531.296C138.117 529.593 138.719 527.553 138.719 525.175C138.719 521.916 137.559 519.289 135.24 517.293C132.95 515.297 129.692 514.298 125.465 514.298H110.977V536.624ZM173.891 589.068V498.887H192.958V573.348H231.62V589.068H173.891ZM323.607 543.977C323.607 553.812 321.743 562.178 318.015 569.077C314.316 575.976 309.267 581.245 302.867 584.885C296.497 588.496 289.334 590.301 281.378 590.301C273.364 590.301 266.172 588.481 259.802 584.841C253.431 581.201 248.397 575.932 244.698 569.033C240.999 562.134 239.15 553.782 239.15 543.977C239.15 534.143 240.999 525.777 244.698 518.878C248.397 511.979 253.431 506.725 259.802 503.114C266.172 499.474 273.364 497.654 281.378 497.654C289.334 497.654 296.497 499.474 302.867 503.114C309.267 506.725 314.316 511.979 318.015 518.878C321.743 525.777 323.607 534.143 323.607 543.977ZM304.276 543.977C304.276 537.607 303.322 532.235 301.414 527.861C299.535 523.487 296.878 520.17 293.444 517.909C290.009 515.649 285.987 514.519 281.378 514.519C276.769 514.519 272.748 515.649 269.313 517.909C265.878 520.17 263.207 523.487 261.299 527.861C259.42 532.235 258.481 537.607 258.481 543.977C258.481 550.348 259.42 555.72 261.299 560.094C263.207 564.468 265.878 567.785 269.313 570.046C272.748 572.306 276.769 573.436 281.378 573.436C285.987 573.436 290.009 572.306 293.444 570.046C296.878 567.785 299.535 564.468 301.414 560.094C303.322 555.72 304.276 550.348 304.276 543.977ZM417.3 530.459H398.014C397.661 527.964 396.942 525.747 395.856 523.81C394.77 521.843 393.375 520.17 391.673 518.79C389.97 517.41 388.003 516.353 385.772 515.619C383.57 514.886 381.178 514.519 378.595 514.519C373.927 514.519 369.861 515.678 366.397 517.997C362.933 520.287 360.247 523.634 358.339 528.037C356.431 532.411 355.477 537.725 355.477 543.977C355.477 550.406 356.431 555.808 358.339 560.182C360.276 564.556 362.977 567.859 366.441 570.09C369.905 572.321 373.912 573.436 378.462 573.436C381.016 573.436 383.38 573.099 385.552 572.423C387.754 571.748 389.706 570.765 391.408 569.473C393.111 568.152 394.52 566.552 395.636 564.673C396.781 562.795 397.573 560.652 398.014 558.244L417.3 558.333C416.801 562.472 415.554 566.464 413.558 570.31C411.591 574.126 408.934 577.546 405.587 580.57C402.27 583.564 398.307 585.942 393.698 587.703C389.119 589.435 383.937 590.301 378.154 590.301C370.111 590.301 362.918 588.481 356.577 584.841C350.266 581.201 345.275 575.932 341.606 569.033C337.966 562.134 336.146 553.782 336.146 543.977C336.146 534.143 337.995 525.777 341.694 518.878C345.393 511.979 350.413 506.725 356.754 503.114C363.095 499.474 370.228 497.654 378.154 497.654C383.38 497.654 388.223 498.387 392.685 499.855C397.177 501.323 401.155 503.466 404.619 506.284C408.083 509.073 410.901 512.493 413.073 516.544C415.275 520.595 416.684 525.234 417.3 530.459ZM430.973 589.068V498.887H450.04V538.649H451.229L483.682 498.887H506.536L473.07 539.266L506.932 589.068H484.122L459.419 551.992L450.04 563.441V589.068H430.973ZM516.465 589.068V498.887H577.232V514.607H535.532V536.095H574.106V551.816H535.532V573.348H577.408V589.068H516.465ZM592.391 589.068V498.887H627.971C634.781 498.887 640.594 500.105 645.408 502.541C650.252 504.949 653.936 508.369 656.461 512.801C659.015 517.205 660.292 522.386 660.292 528.345C660.292 534.334 659 539.486 656.417 543.801C653.833 548.087 650.09 551.375 645.188 553.665C640.315 555.955 634.414 557.1 627.486 557.1H603.664V541.776H624.404C628.044 541.776 631.068 541.277 633.475 540.279C635.882 539.28 637.673 537.783 638.847 535.787C640.051 533.791 640.652 531.31 640.652 528.345C640.652 525.351 640.051 522.826 638.847 520.771C637.673 518.717 635.867 517.161 633.431 516.104C631.024 515.018 627.985 514.475 624.316 514.475H611.458V589.068H592.391ZM641.093 548.029L663.506 589.068H642.458L620.529 548.029H641.093Z" fill="black"/>
</svg>
