<svg width="750" height="1000" viewBox="0 0 750 1000" fill="none" xmlns="http://www.w3.org/2000/svg">
<path d="M367.807 94.4231C370.41 87.939 379.59 87.939 382.193 94.4231L414.485 174.836C415.594 177.597 418.185 179.48 421.154 179.681L507.61 185.544C514.581 186.016 517.418 194.746 512.056 199.226L445.557 254.786C443.274 256.694 442.284 259.741 443.01 262.626L464.151 346.662C465.855 353.438 458.429 358.834 452.512 355.118L379.122 309.044C376.602 307.461 373.398 307.461 370.878 309.044L297.488 355.118C291.571 358.834 284.145 353.438 285.849 346.662L306.99 262.626C307.716 259.741 306.726 256.694 304.443 254.786L237.944 199.226C232.582 194.746 235.419 186.016 242.39 185.544L328.846 179.681C331.815 179.48 334.406 177.597 335.515 174.836L367.807 94.4231Z" fill="#A1A1A1"/>
<path d="M214.192 502.912H233.039V565.793C233.039 571.606 231.732 576.655 229.12 580.941C226.536 585.227 222.94 588.529 218.331 590.848C213.722 593.168 208.365 594.327 202.259 594.327C196.828 594.327 191.896 593.373 187.463 591.465C183.06 589.527 179.567 586.592 176.983 582.658C174.4 578.695 173.123 573.719 173.152 567.731H192.131C192.19 570.108 192.674 572.149 193.584 573.851C194.524 575.525 195.801 576.816 197.415 577.726C199.059 578.607 200.997 579.047 203.228 579.047C205.576 579.047 207.558 578.548 209.172 577.55C210.816 576.523 212.064 575.026 212.915 573.059C213.766 571.092 214.192 568.67 214.192 565.793V502.912ZM331.675 548.003C331.675 557.838 329.811 566.204 326.083 573.103C322.384 580.001 317.335 585.271 310.935 588.911C304.565 592.522 297.402 594.327 289.446 594.327C281.432 594.327 274.24 592.507 267.87 588.867C261.499 585.227 256.465 579.957 252.766 573.059C249.067 566.16 247.218 557.808 247.218 548.003C247.218 538.169 249.067 529.803 252.766 522.904C256.465 516.005 261.499 510.75 267.87 507.14C274.24 503.5 281.432 501.679 289.446 501.679C297.402 501.679 304.565 503.5 310.935 507.14C317.335 510.75 322.384 516.005 326.083 522.904C329.811 529.803 331.675 538.169 331.675 548.003ZM312.344 548.003C312.344 541.633 311.39 536.261 309.482 531.887C307.603 527.513 304.946 524.196 301.512 521.935C298.077 519.675 294.055 518.545 289.446 518.545C284.837 518.545 280.816 519.675 277.381 521.935C273.946 524.196 271.275 527.513 269.367 531.887C267.488 536.261 266.549 541.633 266.549 548.003C266.549 554.374 267.488 559.746 269.367 564.12C271.275 568.494 273.946 571.811 277.381 574.072C280.816 576.332 284.837 577.462 289.446 577.462C294.055 577.462 298.077 576.332 301.512 574.072C304.946 571.811 307.603 568.494 309.482 564.12C311.39 559.746 312.344 554.374 312.344 548.003ZM345.799 593.094V502.912H364.866V542.675H366.055L398.508 502.912H421.362L387.896 543.292L421.758 593.094H398.948L374.245 556.018L364.866 567.466V593.094H345.799ZM431.291 593.094V502.912H492.058V518.633H450.358V540.121H488.932V555.841H450.358V577.374H492.234V593.094H431.291ZM507.217 593.094V502.912H542.797C549.607 502.912 555.42 504.131 560.234 506.567C565.078 508.974 568.762 512.394 571.287 516.827C573.841 521.231 575.118 526.412 575.118 532.371C575.118 538.36 573.826 543.512 571.243 547.827C568.659 552.113 564.916 555.401 560.014 557.691C555.141 559.981 549.24 561.125 542.312 561.125H518.49V545.802H539.23C542.87 545.802 545.894 545.303 548.301 544.304C550.708 543.306 552.499 541.809 553.673 539.813C554.877 537.817 555.478 535.336 555.478 532.371C555.478 529.377 554.877 526.852 553.673 524.797C552.499 522.742 550.693 521.187 548.257 520.13C545.85 519.044 542.811 518.5 539.142 518.5H526.284V593.094H507.217ZM555.919 552.054L578.332 593.094H557.284L535.355 552.054H555.919Z" fill="#A1A1A1"/>
</svg>
