<svg width="750" height="1000" viewBox="0 0 750 1000" fill="none" xmlns="http://www.w3.org/2000/svg">
<circle cx="375" cy="139.576" r="19.5787" fill="#D9D9D9"/>
<path d="M624.447 241.095C624.447 251.908 615.681 260.674 604.868 260.674C594.055 260.674 585.289 251.908 585.289 241.095C585.289 230.282 594.055 221.517 604.868 221.517C615.681 221.517 624.447 230.282 624.447 241.095Z" fill="#D9D9D9"/>
<circle cx="145.132" cy="241.095" r="19.5787" fill="#D9D9D9"/>
<path d="M199.217 283.45C191.247 279.772 181.43 291.006 186.281 298.321C201.651 321.498 220.449 353.029 230.521 381.844C235.603 396.384 255.255 405.675 268.953 398.633C301.191 382.057 337.12 372.013 374.999 372.013C412.879 372.013 448.807 382.057 481.046 398.633C494.744 405.675 514.475 396.399 519.615 381.88C530.11 352.233 549.876 319.416 565.477 295.967C570.272 288.76 561.008 278.055 553.13 281.644C531.972 291.284 505.78 301.301 488.296 301.301C436.48 301.301 399.055 229.901 383.288 193.338C380.314 186.442 369.381 186.329 366.268 193.163C349.638 229.673 310.398 301.301 258.499 301.301C242.106 301.301 218.815 292.495 199.217 283.45Z" fill="#D9D9D9"/>
<path d="M130.307 625.838V535.656H149.373V610.118H188.035V625.838H130.307ZM218.507 625.838H198.075L229.207 535.656H253.778L284.866 625.838H264.434L241.845 556.264H241.14L218.507 625.838ZM217.23 590.39H265.491V605.274H217.23V590.39ZM295.721 625.838V535.656H314.787V610.118H353.449V625.838H295.721ZM421.779 535.656H440.846V594.221C440.846 600.797 439.275 606.551 436.134 611.483C433.023 616.415 428.663 620.26 423.056 623.02C417.449 625.75 410.917 627.115 403.461 627.115C395.975 627.115 389.429 625.75 383.822 623.02C378.215 620.26 373.855 616.415 370.744 611.483C367.632 606.551 366.076 600.797 366.076 594.221V535.656H385.143V592.592C385.143 596.027 385.891 599.08 387.389 601.751C388.915 604.423 391.058 606.522 393.818 608.048C396.577 609.575 399.792 610.338 403.461 610.338C407.16 610.338 410.374 609.575 413.105 608.048C415.864 606.522 417.992 604.423 419.489 601.751C421.016 599.08 421.779 596.027 421.779 592.592V535.656ZM536.103 567.229H516.816C516.464 564.733 515.744 562.517 514.658 560.579C513.572 558.613 512.178 556.939 510.475 555.559C508.772 554.18 506.805 553.123 504.574 552.389C502.373 551.655 499.98 551.288 497.397 551.288C492.729 551.288 488.663 552.448 485.199 554.767C481.735 557.057 479.049 560.403 477.141 564.807C475.233 569.181 474.279 574.494 474.279 580.747C474.279 587.176 475.233 592.577 477.141 596.952C479.079 601.326 481.779 604.628 485.243 606.859C488.707 609.09 492.714 610.206 497.265 610.206C499.819 610.206 502.182 609.868 504.354 609.193C506.556 608.518 508.508 607.534 510.211 606.243C511.913 604.922 513.322 603.322 514.438 601.443C515.583 599.564 516.375 597.421 516.816 595.014L536.103 595.102C535.604 599.241 534.356 603.234 532.36 607.079C530.393 610.896 527.736 614.316 524.39 617.339C521.072 620.334 517.109 622.711 512.5 624.473C507.921 626.205 502.74 627.071 496.956 627.071C488.913 627.071 481.721 625.251 475.38 621.611C469.068 617.97 464.078 612.701 460.408 605.802C456.768 598.904 454.948 590.552 454.948 580.747C454.948 570.913 456.797 562.546 460.496 555.648C464.195 548.749 469.215 543.494 475.556 539.883C481.897 536.243 489.03 534.423 496.956 534.423C502.182 534.423 507.026 535.157 511.488 536.625C515.979 538.093 519.957 540.236 523.421 543.054C526.885 545.843 529.703 549.263 531.875 553.314C534.077 557.365 535.486 562.003 536.103 567.229ZM549.775 625.838V535.656H568.842V575.419H570.031L602.484 535.656H625.338L591.872 576.035L625.734 625.838H602.924L578.221 588.761L568.842 600.21V625.838H549.775Z" fill="#A1A1A1"/>
</svg>
