<svg width="750" height="1000" viewBox="0 0 750 1000" fill="none" xmlns="http://www.w3.org/2000/svg">
<path d="M90.716 621.763V531.581H109.783V606.043H148.445V621.763H90.716ZM178.916 621.763H158.484L189.617 531.581H214.188L245.276 621.763H224.844L202.254 552.189H201.55L178.916 621.763ZM177.639 586.316H225.901V601.199H177.639V586.316ZM256.13 621.763V531.581H275.197V606.043H313.859V621.763H256.13ZM405.846 576.672C405.846 586.507 403.982 594.873 400.254 601.772C396.555 608.67 391.506 613.94 385.106 617.58C378.736 621.191 371.573 622.996 363.617 622.996C355.603 622.996 348.411 621.176 342.041 617.536C335.67 613.896 330.636 608.626 326.937 601.728C323.238 594.829 321.389 586.477 321.389 576.672C321.389 566.838 323.238 558.472 326.937 551.573C330.636 544.674 335.67 539.419 342.041 535.809C348.411 532.168 355.603 530.348 363.617 530.348C371.573 530.348 378.736 532.168 385.106 535.809C391.506 539.419 396.555 544.674 400.254 551.573C403.982 558.472 405.846 566.838 405.846 576.672ZM386.515 576.672C386.515 570.302 385.561 564.93 383.653 560.556C381.774 556.182 379.117 552.865 375.683 550.604C372.248 548.344 368.226 547.213 363.617 547.213C359.008 547.213 354.987 548.344 351.552 550.604C348.117 552.865 345.446 556.182 343.538 560.556C341.659 564.93 340.72 570.302 340.72 576.672C340.72 583.043 341.659 588.415 343.538 592.789C345.446 597.163 348.117 600.48 351.552 602.74C354.987 605.001 359.008 606.131 363.617 606.131C368.226 606.131 372.248 605.001 375.683 602.74C379.117 600.48 381.774 597.163 383.653 592.789C385.561 588.415 386.515 583.043 386.515 576.672ZM502.842 576.672C502.842 586.507 500.978 594.873 497.25 601.772C493.551 608.67 488.502 613.94 482.102 617.58C475.732 621.191 468.569 622.996 460.613 622.996C452.599 622.996 445.407 621.176 439.037 617.536C432.666 613.896 427.632 608.626 423.933 601.728C420.234 594.829 418.385 586.477 418.385 576.672C418.385 566.838 420.234 558.472 423.933 551.573C427.632 544.674 432.666 539.419 439.037 535.809C445.407 532.168 452.599 530.348 460.613 530.348C468.569 530.348 475.732 532.168 482.102 535.809C488.502 539.419 493.551 544.674 497.25 551.573C500.978 558.472 502.842 566.838 502.842 576.672ZM483.511 576.672C483.511 570.302 482.557 564.93 480.649 560.556C478.77 556.182 476.113 552.865 472.679 550.604C469.244 548.344 465.222 547.213 460.613 547.213C456.004 547.213 451.983 548.344 448.548 550.604C445.113 552.865 442.442 556.182 440.534 560.556C438.655 564.93 437.716 570.302 437.716 576.672C437.716 583.043 438.655 588.415 440.534 592.789C442.442 597.163 445.113 600.48 448.548 602.74C451.983 605.001 456.004 606.131 460.613 606.131C465.222 606.131 469.244 605.001 472.679 602.74C476.113 600.48 478.77 597.163 480.649 592.789C482.557 588.415 483.511 583.043 483.511 576.672ZM565.888 557.517C565.536 553.965 564.024 551.206 561.352 549.239C558.681 547.272 555.055 546.289 550.476 546.289C547.364 546.289 544.737 546.729 542.594 547.61C540.451 548.461 538.807 549.65 537.662 551.177C536.546 552.703 535.989 554.435 535.989 556.373C535.93 557.987 536.268 559.396 537.002 560.6C537.765 561.803 538.807 562.846 540.128 563.726C541.449 564.578 542.975 565.326 544.707 565.972C546.439 566.588 548.289 567.117 550.256 567.557L558.358 569.495C562.292 570.375 565.903 571.55 569.19 573.017C572.478 574.485 575.326 576.291 577.733 578.434C580.14 580.577 582.004 583.101 583.325 586.008C584.676 588.914 585.366 592.246 585.395 596.003C585.366 601.522 583.957 606.307 581.168 610.358C578.408 614.38 574.416 617.507 569.19 619.738C563.994 621.939 557.727 623.04 550.388 623.04C543.108 623.04 536.767 621.925 531.365 619.694C525.993 617.463 521.795 614.16 518.771 609.786C515.777 605.383 514.207 599.937 514.06 593.449H532.51C532.716 596.473 533.582 598.998 535.108 601.023C536.664 603.019 538.734 604.531 541.317 605.559C543.93 606.557 546.88 607.056 550.168 607.056C553.397 607.056 556.2 606.586 558.578 605.647C560.985 604.707 562.85 603.401 564.171 601.728C565.492 600.054 566.152 598.132 566.152 595.959C566.152 593.934 565.55 592.231 564.347 590.851C563.172 589.472 561.44 588.297 559.151 587.329C556.89 586.36 554.116 585.479 550.828 584.686L541.009 582.221C533.405 580.371 527.402 577.48 522.999 573.546C518.595 569.612 516.408 564.313 516.438 557.65C516.408 552.189 517.861 547.419 520.797 543.338C523.762 539.258 527.828 536.073 532.994 533.783C538.161 531.493 544.032 530.348 550.608 530.348C557.301 530.348 563.143 531.493 568.134 533.783C573.153 536.073 577.058 539.258 579.847 543.338C582.636 547.419 584.074 552.145 584.162 557.517H565.888ZM598.22 621.763V531.581H658.987V547.302H617.287V568.79H655.86V584.51H617.287V606.043H659.163V621.763H598.22Z" fill="black"/>
<path d="M501.618 336.531C499.876 340.016 497.884 343.252 495.644 346.239C496.889 344.994 498.009 343.625 499.004 342.132C500 340.389 500.871 338.522 501.618 336.531ZM402.673 378.349C403.171 378.349 403.544 378.225 403.793 377.976H403.42C403.42 377.727 403.295 377.478 403.046 377.229C403.046 377.478 402.922 377.851 402.673 378.349ZM367.202 378.723V379.096C368.447 381.087 369.691 382.207 370.936 382.456C369.94 381.212 369.069 379.843 368.322 378.349C368.073 377.851 367.824 377.478 367.575 377.229C367.575 377.727 367.451 378.225 367.202 378.723ZM360.108 381.71C360.855 380.963 361.477 379.967 361.975 378.723C361.477 377.229 360.979 375.86 360.481 374.615V373.869L359.361 375.736C356.872 380.216 355.13 383.079 354.134 384.323C356.374 383.079 358.365 382.207 360.108 381.71ZM397.072 380.963C397.819 379.718 398.317 378.1 398.566 376.109L398.939 374.242C399.188 372.749 399.437 371.628 399.686 370.882C398.939 369.886 398.317 369.139 397.819 368.641C397.819 368.89 397.695 369.139 397.446 369.388C396.948 370.135 396.45 371.255 395.952 372.749C394.21 376.731 392.716 379.22 391.472 380.216C389.729 381.461 387.987 382.456 386.244 383.203C385.498 383.95 384.751 384.572 384.004 385.07C385.498 385.319 387.116 385.319 388.858 385.07C393.09 382.83 395.828 381.461 397.072 380.963ZM337.332 391.791H338.825C335.341 390.546 331.98 388.804 328.744 386.564C329.989 388.057 331.358 389.302 332.851 390.297C334.345 391.044 335.838 391.542 337.332 391.791ZM509.086 274.177C508.588 278.409 507.965 282.516 507.219 286.498C502.24 316.12 494.399 338.024 483.696 352.213L484.443 351.466C496.391 341.011 504.356 324.209 508.339 301.06C509.086 292.597 509.334 283.636 509.086 274.177ZM239.507 207.342C241.249 203.36 243.241 199.501 245.481 195.768C247.223 191.038 249.464 186.682 252.202 182.699C248.468 186.433 245.481 190.167 243.241 193.901C241.747 196.888 240.503 201.368 239.507 207.342ZM238.76 226.011C238.76 232.981 239.134 240.573 239.88 248.787C239.631 239.079 239.756 230.865 240.254 224.144C240.254 222.153 240.378 220.162 240.627 218.17C239.88 220.908 239.258 223.522 238.76 226.011ZM309.702 350.719V351.093C309.702 351.839 309.453 352.462 308.955 352.96L309.329 353.333L310.822 354.826C310.573 354.329 310.449 353.955 310.449 353.706C310.449 352.711 310.822 351.964 311.569 351.466L311.195 351.093C310.947 350.844 310.449 350.719 309.702 350.719ZM319.41 366.401L322.397 373.495C327.873 381.71 334.594 386.564 342.559 388.057H345.173C346.666 387.061 348.035 385.568 349.28 383.577C350.525 382.083 352.64 378.723 355.627 373.495C356.623 371.504 357.494 370.135 358.241 369.388C359.237 367.895 360.357 367.023 361.601 366.775H362.722C362.224 365.281 361.85 363.788 361.601 362.294C361.353 360.8 361.975 359.929 363.468 359.68C364.962 359.431 365.833 360.054 366.082 361.547C366.331 361.298 366.58 361.174 366.829 361.174C367.575 360.676 368.322 360.8 369.069 361.547C369.318 361.796 369.442 362.045 369.442 362.294L369.816 362.667V363.041V363.414V364.534V365.654V366.775C370.065 369.513 370.562 372.126 371.309 374.615C372.056 375.362 372.927 376.109 373.923 376.856C375.914 378.847 378.03 379.843 380.27 379.843C381.266 379.843 382.386 379.718 383.631 379.469C384.626 378.474 385.498 377.354 386.244 376.109C386.991 375.113 387.862 373.869 388.858 372.375C390.103 370.384 390.974 369.139 391.472 368.641C393.463 365.405 395.454 363.663 397.446 363.414C398.441 363.414 399.313 363.663 400.059 364.161L400.806 364.908L401.926 366.028C401.926 365.779 402.051 365.654 402.3 365.654C402.797 364.908 403.544 364.659 404.54 364.908C405.287 364.908 405.909 365.405 406.407 366.401V368.268V369.015V369.388L406.78 370.135V370.882H407.153C409.643 373.371 412.007 375.238 414.248 376.482C417.981 376.482 422.338 376.98 427.316 377.976C430.552 377.229 433.414 375.362 435.904 372.375C436.152 372.126 436.775 371.38 437.77 370.135C439.015 368.641 440.011 367.521 440.757 366.775C440.757 366.526 440.882 366.277 441.131 366.028C441.131 365.281 441.255 364.783 441.504 364.534C442.002 361.298 443.371 359.307 445.611 358.56C449.345 357.565 455.319 356.818 463.533 356.32C468.512 356.071 472.37 355.698 475.108 355.2C487.803 343.75 497.137 320.6 503.112 285.752C505.85 268.825 507.094 252.645 506.845 237.213L504.605 220.037L501.618 209.209C499.378 202.239 496.764 195.643 493.777 189.42C483.074 173.738 467.765 162.039 447.852 154.323C434.41 148.846 413.75 145.486 385.871 144.242C378.901 143.993 371.932 143.993 364.962 144.242C362.97 144.49 360.855 144.739 358.614 144.988C341.19 147.229 324.762 150.589 309.329 155.069L299.994 158.43L289.166 162.164C282.196 165.897 275.849 170.005 270.124 174.485C261.661 181.206 254.815 188.922 249.588 197.634C246.85 205.102 245.108 214.063 244.361 224.518C244.112 230.99 244.112 238.955 244.361 248.414C244.61 250.654 244.859 254.388 245.108 259.615C245.357 264.842 245.481 268.701 245.481 271.19C245.73 278.409 246.103 284.631 246.601 289.859C247.597 295.086 248.841 299.94 250.335 304.42C252.824 311.39 255.438 317.24 258.176 321.969C266.39 336.158 276.471 344.123 288.419 345.865H300.741H307.835C310.573 346.114 312.44 346.612 313.436 347.359C315.178 348.603 316.547 350.595 317.543 353.333C318.041 355.324 318.539 357.813 319.036 360.8C319.036 362.294 319.161 364.161 319.41 366.401ZM423.582 143.121H424.329H423.582ZM322.397 252.894L320.903 257.002L325.757 248.414C329.989 240.946 333.349 234.599 335.838 229.372L322.397 252.894ZM415.368 237.213C419.35 237.959 423.209 239.951 426.942 243.187L435.53 248.04L437.024 248.787L437.77 248.414C438.766 247.667 439.886 246.547 441.131 245.053C446.358 239.079 451.088 234.848 455.319 232.359C460.298 228.376 464.654 225.762 468.387 224.518C471.374 223.273 474.237 222.9 476.975 223.398C477.971 222.651 479.091 222.526 480.335 223.024C482.078 223.771 483.074 224.891 483.323 226.385L483.696 226.758C491.412 234.225 493.279 244.431 489.297 257.375C486.061 267.581 479.713 278.533 470.254 290.232C461.542 300.438 452.581 309.025 443.371 315.995C438.642 319.231 434.535 321.471 431.05 322.716C426.32 324.707 422.462 324.956 419.475 323.463C414.994 320.974 410.389 315.622 405.66 307.407C401.428 299.94 398.068 291.975 395.579 283.511C394.583 282.267 393.712 281.022 392.965 279.778C388.236 271.065 386.12 263.349 386.618 256.628C387.364 248.165 392.218 242.066 401.179 238.333C402.922 237.586 404.789 237.213 406.78 237.213C408.771 235.719 410.887 235.346 413.128 236.092C413.874 236.341 414.621 236.715 415.368 237.213ZM413.501 271.19H413.874C413.625 270.941 413.501 270.568 413.501 270.07V271.19ZM434.41 289.112C433.414 289.61 432.543 289.983 431.796 290.232C429.556 290.979 427.191 291.228 424.702 290.979C423.955 295.21 423.707 298.944 423.955 302.18V302.554L425.822 304.047L427.316 302.554C428.809 300.562 430.427 298.198 432.17 295.459C431.921 294.464 432.045 293.468 432.543 292.472C432.792 291.726 433.414 290.606 434.41 289.112ZM481.456 239.826C481.207 240.324 480.833 241.195 480.335 242.44C479.589 243.933 478.718 245.551 477.722 247.294C475.979 253.766 472.992 261.233 468.761 269.696C463.782 279.653 458.306 288.614 452.332 296.58L463.16 284.631C472.121 273.679 477.971 263.722 480.709 254.761C482.7 248.787 482.949 243.809 481.456 239.826ZM422.089 267.456L423.582 264.469C423.831 260.984 422.96 257.624 420.968 254.388C420.72 253.89 420.346 253.392 419.848 252.894L420.968 261.109C421.217 263.598 421.591 265.714 422.089 267.456ZM431.05 279.404C432.045 277.164 432.17 274.177 431.423 270.443C430.676 272.186 429.681 273.804 428.436 275.297C428.187 276.044 427.938 276.915 427.689 277.911C428.685 278.657 429.681 279.155 430.676 279.404H431.05ZM403.793 279.778C407.029 284.756 410.887 289.61 415.368 294.339C415.368 292.597 415.617 290.73 416.115 288.739L413.874 287.245C409.643 284.756 406.905 281.396 405.66 277.164C404.166 275.919 402.922 274.55 401.926 273.057C402.424 275.048 403.046 277.164 403.793 279.404V279.778ZM447.852 251.401L443.371 256.628C446.109 258.619 447.478 261.855 447.478 266.336V267.083C450.714 261.109 454.075 255.384 457.559 249.907C460.298 245.427 462.787 241.818 465.027 239.079C465.525 238.333 466.147 237.586 466.894 236.839C465.151 237.337 463.285 238.208 461.293 239.453L460.546 239.826L459.8 240.2C457.311 242.191 453.577 245.676 448.598 250.654L447.852 251.401ZM369.816 416.06C369.567 416.06 369.193 416.185 368.696 416.434C368.198 416.434 367.575 416.434 366.829 416.434C365.086 416.932 362.224 417.803 358.241 419.047C347.538 422.283 340.07 423.777 335.838 423.528C322.397 423.03 312.564 415.936 306.342 402.245C305.097 399.507 303.977 396.271 302.981 392.538L299.994 380.963C298.998 376.731 298.252 373.993 297.754 372.749C297.256 371.006 297.256 369.388 297.754 367.895C295.265 367.397 292.527 367.148 289.54 367.148C286.801 367.148 283.317 367.272 279.085 367.521C275.102 367.521 271.991 367.397 269.751 367.148C254.069 367.148 241.623 363.29 232.413 355.573C220.963 345.616 213.993 330.308 211.504 309.648C211.006 304.918 210.632 299.94 210.384 294.713C210.384 289.236 210.384 283.013 210.384 276.044C210.632 269.074 210.757 264.842 210.757 263.349V254.761V244.68C210.757 243.187 210.757 240.075 210.757 235.346C211.006 230.367 211.255 226.758 211.504 224.518L212.624 214.436C213.122 209.707 213.619 206.098 214.117 203.609L216.731 193.527C217.727 189.545 218.847 186.184 220.091 183.446C221.336 180.708 222.829 177.721 224.572 174.485C226.314 171.249 228.306 168.387 230.546 165.897C245.232 147.229 275.351 132.667 320.903 122.212C359.237 113.5 392.467 110.14 420.595 112.131C438.268 113.376 455.444 119.723 472.121 131.173C485.812 140.632 497.137 154.821 506.099 173.738C515.309 192.656 521.656 213.565 525.141 236.466C528.875 257.375 529.621 278.782 527.381 300.687C525.39 322.343 520.536 340.14 512.819 354.08C503.858 370.259 491.91 379.469 476.975 381.71C474.984 382.207 470.379 382.456 463.16 382.456C462.164 382.705 461.293 382.83 460.546 382.83C460.795 382.83 460.92 382.954 460.92 383.203C461.418 386.19 461.667 388.057 461.667 388.804C461.916 392.538 461.169 395.774 459.426 398.512C454.448 405.979 445.362 408.966 432.17 407.473C430.676 407.473 428.685 407.348 426.196 407.099C423.707 406.601 421.964 406.228 420.968 405.979H416.861C416.115 406.228 414.87 407.473 413.128 409.713C409.145 414.442 405.536 417.554 402.3 419.047C392.841 423.279 385.373 424.15 379.897 421.661C378.901 421.163 376.91 420.043 373.923 418.301C372.678 417.305 371.309 416.558 369.816 416.06ZM399.686 398.885L393.712 401.872C390.725 403.366 387.862 404.361 385.124 404.859C386.12 405.606 386.742 405.979 386.991 405.979C387.738 406.477 390.6 405.606 395.579 403.366C396.077 403.117 397.446 401.623 399.686 398.885ZM456.066 366.028C457.808 365.779 460.049 365.53 462.787 365.281C469.01 365.281 472.868 365.157 474.361 364.908C481.58 363.663 487.679 359.929 492.657 353.706C490.168 354.951 487.181 356.196 483.696 357.44C481.456 358.685 478.842 359.68 475.855 360.427C472.121 363.165 467.641 364.534 462.413 364.534H459.053H455.319L456.066 366.028ZM241.747 340.638C238.76 334.913 235.898 327.57 233.16 318.609C231.168 311.39 229.301 303.425 227.559 294.713C227.808 299.193 228.181 303.549 228.679 307.781C230.421 322.716 234.778 333.668 241.747 340.638ZM362.348 399.632H361.975L361.228 400.005H362.722L362.348 399.632ZM375.043 387.684C376.288 388.182 377.657 388.43 379.15 388.43C378.652 388.182 378.03 387.933 377.283 387.684H375.043ZM264.15 223.024C268.879 223.024 274.853 225.016 282.072 228.998C287.05 231.736 292.651 235.595 298.874 240.573C305.346 227.629 310.075 217.299 313.062 209.583C313.809 208.089 314.805 207.716 316.049 208.462C317.543 208.96 318.041 209.831 317.543 211.076C314.307 219.041 309.329 229.745 302.608 243.187L303.728 243.933L313.062 229.745C316.796 221.282 319.534 213.192 321.277 205.475C322.023 202.737 323.89 201.617 326.877 202.115L330.611 194.647C332.105 191.909 334.096 191.287 336.585 192.781C339.323 194.025 340.07 195.892 338.825 198.381L329.491 216.677V218.17L330.984 215.93L341.066 195.021C341.563 194.274 342.684 191.66 344.426 187.18C344.924 185.437 345.422 184.193 345.92 183.446C346.168 183.197 346.417 182.824 346.666 182.326C346.915 181.828 347.413 181.455 348.16 181.206C350.4 180.21 352.143 180.584 353.387 182.326C354.134 183.073 354.507 183.82 354.507 184.566V185.686V186.807C353.76 191.536 352.889 195.27 351.894 198.008C351.147 200.497 350.151 202.986 348.907 205.475C348.907 206.471 348.782 207.716 348.533 209.209C346.293 217.175 342.684 226.011 337.705 235.719L348.533 217.797C349.28 216.552 350.525 214.312 352.267 211.076L353.387 208.462H353.76V208.089C353.76 207.84 353.885 207.716 354.134 207.716L354.881 206.969H356.001L357.868 209.209V209.956L357.494 210.329V210.703L357.121 211.076C353.636 218.046 348.409 227.878 341.439 240.573L328.371 264.096L331.358 266.336C344.799 275.048 356.374 283.636 366.082 292.099L366.455 292.472C366.953 292.97 367.202 293.344 367.202 293.593C367.451 294.09 367.7 294.713 367.949 295.459C367.949 296.704 367.451 297.824 366.455 298.82C365.709 299.815 364.713 300.313 363.468 300.313C362.97 300.313 362.597 300.189 362.348 299.94L361.228 299.567C360.979 299.567 360.855 299.442 360.855 299.193C360.357 299.193 359.859 298.944 359.361 298.446L356.374 296.206L329.491 276.417L326.877 274.177L324.264 272.683L322.397 276.044L324.264 277.164C328.993 280.649 337.207 287.245 348.907 296.953C350.151 297.949 352.267 299.318 355.254 301.06C356.499 302.056 357.37 302.678 357.868 302.927C357.868 303.176 357.868 303.425 357.868 303.674C358.117 303.674 358.365 304.047 358.614 304.794C358.863 305.292 358.988 305.79 358.988 306.287C358.988 308.03 358.241 309.399 356.748 310.395C356.25 310.643 355.627 310.768 354.881 310.768C354.383 311.017 353.636 311.017 352.64 310.768C349.653 310.021 345.671 307.781 340.692 304.047C336.959 301.558 332.478 298.073 327.251 293.593L317.916 285.005C312.191 297.451 307.711 309.025 304.475 319.729C303.977 320.974 302.981 321.471 301.488 321.222L301.114 320.849C300.367 322.592 299.372 323.961 298.127 324.956L297.38 325.703C296.883 325.952 296.26 326.076 295.514 326.076C294.767 325.827 294.269 325.33 294.02 324.583C293.771 324.334 293.647 323.961 293.647 323.463C293.647 322.965 293.771 321.969 294.02 320.476C294.269 319.729 294.642 318.235 295.14 315.995C294.891 316.244 294.642 316.742 294.393 317.489L293.647 319.729C293.149 320.725 292.651 321.471 292.153 321.969C291.904 322.467 291.655 322.965 291.406 323.463C289.664 324.707 287.797 324.707 285.806 323.463C285.059 322.716 284.561 321.845 284.312 320.849H283.939C283.192 321.098 282.57 320.849 282.072 320.102L281.325 318.609V317.862C281.574 315.871 282.072 313.755 282.819 311.515C282.57 311.515 282.321 311.39 282.072 311.141C281.076 310.892 280.33 310.395 279.832 309.648C279.334 308.901 278.961 308.154 278.712 307.407V306.287C278.961 305.79 279.085 305.043 279.085 304.047C279.583 302.305 279.956 300.811 280.205 299.567C281.45 295.335 284.437 288.116 289.166 277.911L293.647 268.576L293.273 268.203L284.686 282.765L283.566 284.631L282.819 287.245L275.351 307.407C275.102 308.154 274.729 309.15 274.231 310.395C273.982 311.888 273.733 313.008 273.484 313.755C273.235 314.004 272.986 314.502 272.738 315.248C272.738 315.746 272.613 316.244 272.364 316.742L271.617 317.862C271.617 318.111 271.493 318.36 271.244 318.609C270.497 319.605 269.626 319.729 268.63 318.982C268.133 318.484 267.759 317.987 267.51 317.489V316.742C267.51 308.777 271.493 297.451 279.458 282.765L287.299 264.469L283.192 261.482C270.497 252.77 261.661 244.929 256.682 237.959L255.562 237.213L252.949 234.972C252.202 234.474 251.579 234.101 251.082 233.852C250.833 233.354 250.584 232.856 250.335 232.359C250.086 231.861 249.962 231.114 249.962 230.118C249.962 228.376 250.833 227.131 252.575 226.385C252.824 226.136 252.949 225.887 252.949 225.638C253.944 224.393 255.189 223.771 256.682 223.771C257.18 223.771 257.678 223.895 258.176 224.144C258.923 224.144 259.669 224.393 260.416 224.891C261.163 223.646 262.407 223.024 264.15 223.024ZM363.468 334.291C364.215 333.793 366.331 332.05 369.816 329.063C372.803 326.823 375.292 325.205 377.283 324.209C381.017 322.467 384.253 322.592 386.991 324.583C389.729 326.325 391.721 329.686 392.965 334.664C393.712 337.651 392.592 339.518 389.605 340.265C386.618 341.011 384.751 339.891 384.004 336.904C383.506 334.166 382.884 332.548 382.137 332.05L381.017 332.424C379.772 332.922 378.03 334.166 375.79 336.158L368.696 341.758C366.206 343.501 364.091 343.127 362.348 340.638C360.606 338.149 360.979 336.033 363.468 334.291ZM426.569 314.875C426.818 314.875 426.942 314.875 426.942 314.875H426.569Z" fill="black"/>
</svg>
