<svg width="750" height="1000" viewBox="0 0 750 1000" fill="none" xmlns="http://www.w3.org/2000/svg">
<path d="M637.087 249.775C640.644 247.073 641.338 242 638.637 238.442C635.935 234.885 630.861 234.192 627.304 236.893L637.087 249.775ZM525.05 296.03C551.596 292.197 570.585 287.624 587.588 280.373C604.598 273.119 619.192 263.366 637.087 249.775L627.304 236.893C609.764 250.215 596.419 259.022 581.243 265.494C566.061 271.968 548.617 276.284 522.739 280.021L525.05 296.03Z" fill="#A1A1A1"/>
<path d="M565.651 229.216C567.866 227.009 567.872 223.424 565.665 221.21C563.458 218.995 559.873 218.989 557.658 221.196L565.651 229.216ZM503.971 241.697C502.57 247.182 502.572 247.183 502.575 247.184C502.576 247.184 502.579 247.185 502.581 247.185C502.585 247.186 502.59 247.187 502.595 247.189C502.606 247.191 502.618 247.195 502.633 247.198C502.661 247.205 502.698 247.214 502.743 247.225C502.833 247.247 502.954 247.275 503.105 247.309C503.407 247.377 503.831 247.467 504.365 247.569C505.434 247.773 506.95 248.025 508.833 248.241C512.592 248.671 517.857 248.961 523.966 248.412C536.199 247.312 551.999 242.821 565.651 229.216L557.658 221.196C546.367 232.448 533.326 236.202 522.953 237.134C517.759 237.601 513.28 237.353 510.121 236.991C508.545 236.811 507.308 236.604 506.489 236.447C506.079 236.369 505.775 236.304 505.585 236.261C505.491 236.24 505.425 236.225 505.389 236.216C505.371 236.212 505.361 236.209 505.358 236.208C505.357 236.208 505.357 236.208 505.36 236.209C505.361 236.209 505.363 236.21 505.365 236.21C505.366 236.21 505.368 236.211 505.369 236.211C505.371 236.212 505.373 236.212 503.971 241.697Z" fill="#A1A1A1"/>
<path d="M598.926 239.965C601.669 237.674 602.036 233.594 599.746 230.851C597.455 228.108 593.375 227.742 590.632 230.032L598.926 239.965ZM516.447 251.169C514.45 257.324 514.453 257.325 514.456 257.325C514.457 257.326 514.46 257.327 514.463 257.328C514.468 257.329 514.473 257.331 514.479 257.333C514.492 257.337 514.507 257.342 514.524 257.347C514.559 257.358 514.605 257.373 514.66 257.39C514.772 257.424 514.924 257.47 515.115 257.526C515.497 257.638 516.037 257.79 516.722 257.967C518.092 258.321 520.046 258.778 522.488 259.221C527.363 260.105 534.228 260.944 542.29 260.784C558.425 260.465 579.567 256.13 598.926 239.965L590.632 230.032C574.122 243.818 556.098 247.568 542.034 247.847C534.997 247.986 529.005 247.252 524.798 246.488C522.698 246.107 521.054 245.721 519.961 245.439C519.415 245.298 519.008 245.183 518.751 245.107C518.622 245.07 518.532 245.042 518.48 245.026C518.454 245.018 518.438 245.013 518.432 245.011C518.429 245.01 518.429 245.01 518.431 245.011C518.432 245.011 518.433 245.012 518.436 245.012C518.437 245.013 518.439 245.014 518.44 245.014C518.442 245.014 518.444 245.015 516.447 251.169Z" fill="#A1A1A1"/>
<path d="M532.897 224.495C535.488 222.744 536.168 219.225 534.418 216.635C532.667 214.044 529.147 213.363 526.557 215.114L532.897 224.495ZM471.596 229.873C472.396 231.026 473.553 231.962 474.508 232.632C475.599 233.396 476.954 234.174 478.543 234.891C481.733 236.332 486.007 237.593 491.255 237.975C501.842 238.746 515.996 235.919 532.897 224.495L526.557 215.114C511.44 225.331 499.769 227.243 492.078 226.683C488.187 226.399 485.209 225.478 483.203 224.572C482.194 224.116 481.464 223.68 481.006 223.359C480.412 222.943 480.554 222.922 480.897 223.415L471.596 229.873Z" fill="#A1A1A1"/>
<path d="M138.003 304.473C150.995 302.519 183.377 294.475 210.506 261.711" stroke="#A1A1A1" stroke-width="16.1753" stroke-linecap="round"/>
<circle cx="383.362" cy="304.13" r="35.5093" transform="rotate(-35 383.362 304.13)" fill="#A1A1A1"/>
<circle cx="383.362" cy="304.13" r="35.5093" transform="rotate(-35 383.362 304.13)" fill="#A1A1A1"/>
<circle cx="397.17" cy="292.937" r="9.50956" transform="rotate(-35 397.17 292.937)" fill="#F2F2F2"/>
<circle cx="359.098" cy="290.277" r="64.8039" transform="rotate(-35 359.098 290.277)" stroke="#A1A1A1" stroke-width="14.5577"/>
<path d="M547.317 290.733C547.317 290.733 477.048 177.762 359.933 177.762C242.818 177.762 172.549 290.733 172.549 290.733C172.549 290.733 242.818 403.704 359.933 403.704C477.048 403.704 547.317 290.733 547.317 290.733ZM200.024 290.733C211.35 275.639 224.376 261.58 238.907 248.77C269.052 222.293 310.277 198.302 359.933 198.302C409.59 198.302 450.791 222.293 480.983 248.77C495.514 261.58 508.54 275.639 519.865 290.733C518.507 292.52 517.008 294.492 515.298 296.649C507.451 306.508 495.857 319.654 480.983 332.697C450.791 359.173 409.567 383.164 359.933 383.164C310.277 383.164 269.075 359.173 238.883 332.697C224.353 319.886 211.35 305.827 200.024 290.733Z" fill="#A1A1A1"/>
<path d="M438.397 195.146C528.816 228.734 568.546 273.518 628.826 242.418L587.191 270.986L536.505 284.563C494.44 250.128 410.997 184.968 438.397 195.146Z" fill="#A1A1A1"/>
<path d="M168.281 530.752L190.078 599.269H190.915L212.756 530.752H233.892L202.804 620.934H178.233L147.101 530.752H168.281ZM263.813 530.752V620.934H244.746V530.752H263.813ZM328.422 556.688C328.07 553.136 326.558 550.376 323.887 548.409C321.215 546.443 317.59 545.459 313.01 545.459C309.898 545.459 307.271 545.9 305.128 546.78C302.985 547.632 301.341 548.82 300.196 550.347C299.081 551.873 298.523 553.605 298.523 555.543C298.464 557.158 298.802 558.567 299.536 559.77C300.299 560.974 301.341 562.016 302.662 562.897C303.983 563.748 305.51 564.497 307.242 565.142C308.974 565.759 310.823 566.287 312.79 566.728L320.892 568.665C324.826 569.546 328.437 570.72 331.725 572.188C335.012 573.656 337.86 575.461 340.267 577.604C342.674 579.747 344.539 582.272 345.86 585.178C347.21 588.084 347.9 591.416 347.929 595.174C347.9 600.693 346.491 605.478 343.702 609.529C340.942 613.551 336.95 616.677 331.725 618.908C326.529 621.11 320.261 622.211 312.922 622.211C305.642 622.211 299.301 621.095 293.899 618.864C288.527 616.633 284.329 613.33 281.306 608.956C278.311 604.553 276.741 599.107 276.594 592.62H295.044C295.25 595.643 296.116 598.168 297.642 600.194C299.198 602.19 301.268 603.702 303.851 604.729C306.464 605.727 309.414 606.226 312.702 606.226C315.931 606.226 318.735 605.757 321.112 604.817C323.52 603.878 325.384 602.571 326.705 600.898C328.026 599.225 328.686 597.302 328.686 595.13C328.686 593.104 328.084 591.401 326.881 590.022C325.707 588.642 323.975 587.468 321.685 586.499C319.424 585.53 316.65 584.65 313.362 583.857L303.543 581.391C295.94 579.542 289.936 576.65 285.533 572.716C281.129 568.783 278.942 563.484 278.972 556.82C278.942 551.36 280.396 546.589 283.331 542.509C286.296 538.428 290.362 535.243 295.529 532.953C300.695 530.664 306.566 529.519 313.142 529.519C319.835 529.519 325.677 530.664 330.668 532.953C335.688 535.243 339.592 538.428 342.381 542.509C345.17 546.589 346.608 551.316 346.696 556.688H328.422ZM379.821 530.752V620.934H360.754V530.752H379.821ZM478.38 575.843C478.38 585.677 476.516 594.043 472.788 600.942C469.089 607.841 464.04 613.11 457.64 616.75C451.27 620.361 444.107 622.167 436.151 622.167C428.137 622.167 420.945 620.346 414.575 616.706C408.204 613.066 403.17 607.797 399.471 600.898C395.772 593.999 393.923 585.648 393.923 575.843C393.923 566.008 395.772 557.642 399.471 550.743C403.17 543.845 408.204 538.59 414.575 534.979C420.945 531.339 428.137 529.519 436.151 529.519C444.107 529.519 451.27 531.339 457.64 534.979C464.04 538.59 469.089 543.845 472.788 550.743C476.516 557.642 478.38 566.008 478.38 575.843ZM459.049 575.843C459.049 569.472 458.095 564.1 456.187 559.726C454.308 555.352 451.651 552.035 448.217 549.775C444.782 547.514 440.76 546.384 436.151 546.384C431.543 546.384 427.521 547.514 424.086 549.775C420.651 552.035 417.98 555.352 416.072 559.726C414.193 564.1 413.254 569.472 413.254 575.843C413.254 582.213 414.193 587.585 416.072 591.959C417.98 596.333 420.651 599.65 424.086 601.911C427.521 604.171 431.543 605.301 436.151 605.301C440.76 605.301 444.782 604.171 448.217 601.911C451.651 599.65 454.308 596.333 456.187 591.959C458.095 587.585 459.049 582.213 459.049 575.843ZM567.934 530.752V620.934H551.466L512.231 564.174H511.571V620.934H492.504V530.752H509.237L548.163 587.468H548.956V530.752H567.934Z" fill="#A1A1A1"/>
</svg>
