<svg width="81" height="92" viewBox="0 0 81 92" fill="none" xmlns="http://www.w3.org/2000/svg">
<path d="M20.404 53.244C20.404 53.1827 20.3733 53.152 20.312 53.152L20.404 53.244ZM22.06 56.372C21.9987 56.372 21.9373 56.3413 21.876 56.28V56.556L22.06 56.372ZM61.252 59.04L62.908 58.764C64.3187 58.58 65.3307 58.3653 65.944 58.12C66.68 57.8747 67.324 57.5373 67.876 57.108C67.8147 56.6173 67.7227 56.188 67.6 55.82C67.416 54.9613 67.048 54.4707 66.496 54.348C65.8213 54.164 65.2693 54.1333 64.84 54.256V54.348C64.472 54.716 63.8587 55.4827 63 56.648C62.6933 57.0773 62.448 57.384 62.264 57.568V57.66C61.9573 58.212 61.62 58.672 61.252 59.04ZM69.348 54.164C68.9187 54.2253 68.5507 54.1027 68.244 53.796C67.692 53.1213 67.14 52.8453 66.588 52.968L66.22 53.152C66.3427 53.152 66.496 53.1827 66.68 53.244C67.7227 53.4893 68.3973 54.256 68.704 55.544C68.704 55.6667 68.7347 55.7587 68.796 55.82L68.888 55.636C69.0107 55.1453 69.164 54.6547 69.348 54.164ZM37.976 27.484C39.7547 27.4227 41.932 27.4533 44.508 27.576C47.82 27.6987 50.856 27.9747 53.616 28.404C48.648 27.5453 43.4347 27.2387 37.976 27.484ZM41.564 65.94C41.748 66.0013 41.9627 66.032 42.208 66.032C44.048 66.032 45.8573 66.0013 47.636 65.94C47.7587 65.8787 47.912 65.848 48.096 65.848H48.372H48.648C56.2533 65.4187 61.5893 64.1307 64.656 61.984C62.6933 63.0267 60.0867 63.8853 56.836 64.56C52.42 65.48 47.4827 65.94 42.024 65.94H41.564ZM13.872 33.464C12.8907 34.3227 12.0933 35.2427 11.48 36.224H11.572C12.124 35.304 12.8907 34.4147 13.872 33.556V33.464ZM69.532 33.372C70.5133 34.5373 71.2187 35.8253 71.648 37.236C71.5253 35.948 71.1267 34.936 70.452 34.2C70.1453 33.9547 69.8387 33.6787 69.532 33.372ZM40.92 25.368C40.8587 25.368 40.828 25.3373 40.828 25.276C40.7667 25.2147 40.736 25.1533 40.736 25.092L40.644 24.816V24.448C40.5827 24.0187 40.552 23.7427 40.552 23.62L40.46 22.884L40.092 22.792C39.4173 22.5467 38.62 23.0067 37.7 24.172C37.332 24.54 36.9947 25 36.688 25.552C36.8107 25.4907 36.9333 25.46 37.056 25.46C38.344 25.3987 39.632 25.368 40.92 25.368ZM9.824 41.376C9.88533 41.2533 9.916 41.1 9.916 40.916C9.97733 40.6707 10.0693 40.456 10.192 40.272C10.3147 39.168 10.56 38.2173 10.928 37.42L10.836 37.236C10.3453 38.2787 10.0387 39.3827 9.916 40.548C9.85467 40.7933 9.824 41.0693 9.824 41.376ZM30.248 64.192C33.3147 64.6213 36.5653 64.836 40 64.836C39.448 64.7747 38.4667 64.5907 37.056 64.284C34.9093 63.8547 33.2227 63.7013 31.996 63.824C31.5667 63.8853 30.984 64.008 30.248 64.192ZM66.68 59.04L66.312 59.224C65.576 59.408 64.5027 59.6227 63.092 59.868C61.4973 60.1133 60.3013 60.328 59.504 60.512C59.0747 60.6347 58.3693 61.0027 57.388 61.616C56.3453 62.352 55.4253 62.7813 54.628 62.904C53.7693 63.0267 52.5427 63.0573 50.948 62.996C49.4147 62.9347 48.3107 62.9347 47.636 62.996C47.084 63.0573 46.2867 63.3947 45.244 64.008C44.508 64.4373 43.8947 64.7133 43.404 64.836C48.3107 64.7133 52.7267 64.2533 56.652 63.456C61.252 62.536 64.4413 61.248 66.22 59.592C66.404 59.408 66.5573 59.224 66.68 59.04ZM69.9 35.856L69.716 35.58L69.808 35.856H69.9ZM18.104 32.82C19.576 32.5133 21.14 32.4827 22.796 32.728C23.1027 32.7893 23.5013 32.8813 23.992 33.004C24.6053 33.188 25.004 33.28 25.188 33.28C25.9853 33.464 26.6907 33.464 27.304 33.28C27.856 33.1573 28.684 32.7893 29.788 32.176C30.9533 31.5627 31.904 31.164 32.64 30.98C34.112 30.6733 36.1053 30.8267 38.62 31.44C41.1347 32.0533 42.9747 32.268 44.14 32.084L48.556 30.888C50.58 30.336 52.236 30.244 53.524 30.612C54.1987 30.8573 55.088 31.4707 56.192 32.452C57.1733 33.2493 58.0013 33.7093 58.676 33.832C59.412 33.9547 60.7613 33.924 62.724 33.74C64.564 33.556 66.0053 33.6173 67.048 33.924C67.1707 33.9853 67.324 34.0467 67.508 34.108C67.2627 33.8013 66.9867 33.556 66.68 33.372C66.2507 33.004 65.7907 32.6667 65.3 32.36C58.9213 30.152 51.9907 28.9253 44.508 28.68C36.964 28.4347 30.984 28.7107 26.568 29.508C23.6853 30.06 20.864 31.164 18.104 32.82ZM78.916 25.828C79.284 31.8387 78.8853 38.5547 77.72 45.976C79.56 37.7573 79.9587 31.0413 78.916 25.828ZM3.752 43.86L3.844 43.768C4.64133 43.2773 5.16267 42.9707 5.408 42.848C6.08267 42.5413 6.66533 42.48 7.156 42.664L6.972 40.18C6.788 40.4867 6.45067 40.8853 5.96 41.376C5.776 41.6213 5.16267 42.2653 4.12 43.308L3.752 43.676V43.86ZM51.408 5.22C51.4693 5.34266 51.5307 5.496 51.592 5.68L52.972 5.864L51.408 5.22ZM37.792 3.104C37.8533 3.22666 37.884 3.38 37.884 3.564C37.8227 3.80933 37.7307 4.05466 37.608 4.3C38.4053 4.36133 39.264 4.42266 40.184 4.484L41.288 4.11599C42.024 3.87066 42.576 3.71733 42.944 3.656C43.1893 3.59466 43.3733 3.564 43.496 3.564C43.68 3.50266 43.864 3.50266 44.048 3.564C44.5387 3.68667 44.8147 3.99333 44.876 4.484V4.852L46.808 5.036C47.176 4.97466 47.5133 4.91333 47.82 4.852C48.4947 4.66799 49.016 4.57599 49.384 4.57599C48.7093 4.33066 48.0653 4.14666 47.452 4.024C44.4467 3.22666 41.2267 2.92 37.792 3.104ZM7.616 6.048C7.55467 6.29333 7.55467 6.6 7.616 6.968C7.67733 7.39733 7.8 7.94933 7.984 8.624C7.86133 7.82666 7.8 7.18266 7.8 6.69199C7.86133 6.508 7.892 6.324 7.892 6.14C7.83067 6.07866 7.76933 6.048 7.708 6.048H7.616ZM32.456 83.696C32.456 83.8187 32.4867 84.2787 32.548 85.076C32.548 84.4627 32.5787 82.776 32.64 80.016C32.5173 81.488 32.456 82.7147 32.456 83.696ZM53.064 81.488V81.12C53.0027 81.1813 52.9413 81.212 52.88 81.212C52.9413 81.3347 53.0027 81.4267 53.064 81.488ZM56.1 84.8L57.664 85.444C58.4613 85.8733 58.8907 86.456 58.952 87.192C59.0133 87.8667 58.676 88.388 57.94 88.756L57.112 89.032C54.2293 89.7067 50.4267 89.4613 45.704 88.296L45.336 88.112C44.968 89.4613 44.2933 90.32 43.312 90.688C42.392 91.1173 41.3493 91.0867 40.184 90.596C39.264 90.1667 38.5587 89.584 38.068 88.848C38.0067 88.9707 37.976 89.0627 37.976 89.124C37.608 90.1053 37.0253 90.78 36.228 91.148C35.308 91.516 34.1427 91.4547 32.732 90.964C31.6893 90.596 30.984 89.6147 30.616 88.02C30.5547 87.5293 30.4933 87.008 30.432 86.456L30.064 86.64C27.7947 87.1307 26.2 87.468 25.28 87.652C24.1147 87.8973 23.164 88.0507 22.428 88.112H21.232C20.6187 88.0507 20.1893 87.836 19.944 87.468C19.6373 87.0387 19.6373 86.548 19.944 85.996C20.0053 85.812 20.1587 85.5973 20.404 85.352L21.508 84.34C21.8147 84.0947 22.06 83.88 22.244 83.696H21.6C20.9867 83.6347 20.5267 83.5733 20.22 83.512C19.484 83.328 19.024 82.96 18.84 82.408C18.5947 81.6107 18.84 80.9667 19.576 80.476C19.8827 80.292 20.312 80.108 20.864 79.924L21.048 79.832C20.5573 79.5253 20.22 79.28 20.036 79.096C19.7907 78.912 19.6067 78.728 19.484 78.544C19.2387 78.176 19.1467 77.808 19.208 77.44C19.3307 76.888 19.668 76.5507 20.22 76.428C20.4653 76.3667 20.7107 76.3667 20.956 76.428L21.324 76.52H21.416C21.9067 76.52 22.9187 76.4893 24.452 76.428C26.0467 76.428 27.2427 76.4587 28.04 76.52C19.1467 74.5573 12.6147 71.2147 8.444 66.492C7.27867 65.1427 6.26667 63.5173 5.408 61.616C4.856 60.9413 4.36533 60.2053 3.936 59.408C3.752 59.5307 3.568 59.592 3.384 59.592C3.07733 59.592 2.80133 59.5 2.556 59.316C2.372 59.0707 2.28 58.7947 2.28 58.488C2.28 57.568 2.24933 56.5867 2.188 55.544C1.32933 53.152 0.869334 50.576 0.808 47.816V46.16C0.378667 45.7307 0.256 45.2093 0.44 44.596C0.501333 44.3507 0.624 44.1053 0.808 43.86C0.808 42.756 0.838667 41.652 0.9 40.548C0.838667 37.8493 0.961334 35.4267 1.268 33.28C1.32933 32.9733 1.39067 32.636 1.452 32.268C1.39067 32.268 1.29867 32.2373 1.176 32.176C0.930667 32.1147 0.746667 31.992 0.624 31.808C0.44 31.5627 0.378667 31.2867 0.44 30.98C0.44 30.796 0.501333 30.5813 0.624 30.336L1.176 29.784L2.28 28.68C2.464 28.128 2.648 27.5453 2.832 26.932L3.016 26.196C2.89333 26.0733 2.80133 25.8893 2.74 25.644C2.61733 25.46 2.58667 25.2147 2.648 24.908C2.70933 24.8467 2.74 24.7853 2.74 24.724C2.80133 24.6013 2.89333 24.4787 3.016 24.356C3.07733 24.2333 3.2 24.0493 3.384 23.804L3.752 23.436C4.18133 21.964 4.64133 20.5533 5.132 19.204L5.224 19.02V18.744L5.408 18.376L5.592 18.192C5.592 18.1307 5.62267 18.0693 5.684 18.008C5.868 17.7013 6.052 17.364 6.236 16.996C6.54267 15.9533 6.788 14.972 6.972 14.052C7.03333 13.684 6.972 13.132 6.788 12.396C6.72667 12.212 6.48133 11.384 6.052 9.912C5.684 8.808 5.46933 7.91866 5.408 7.244C5.28533 6.07867 5.46933 5.15866 5.96 4.484C6.45067 3.748 7.248 3.564 8.352 3.932C8.72 4.05466 9.42533 4.36133 10.468 4.852C11.2653 5.28133 11.94 5.588 12.492 5.772L13.044 5.312C13.2893 5.06666 13.504 4.88266 13.688 4.76C13.8107 4.69866 13.9027 4.63733 13.964 4.57599C14.0867 4.51466 14.1787 4.45333 14.24 4.392C14.5467 4.33066 14.8533 4.392 15.16 4.57599C15.528 4.76 15.7733 5.06666 15.896 5.496L17.46 5.036C17.644 4.852 17.7973 4.72933 17.92 4.668L18.288 4.484C18.5947 4.42266 18.8707 4.484 19.116 4.668L22.428 3.748C22.612 3.62533 22.7653 3.564 22.888 3.564C23.072 3.50266 23.2253 3.472 23.348 3.472C25.6787 2.85866 27.7027 2.368 29.42 1.99999C31.1987 1.632 33.1613 1.32533 35.308 1.08C37.516 0.773329 39.6627 0.711996 41.748 0.895998C43.8947 1.01866 45.98 1.32533 48.004 1.816C49.7213 2.24533 52.3587 3.196 55.916 4.668C59.3507 6.07867 61.896 6.99866 63.552 7.428L64.748 7.888L65.484 8.164C66.8333 8.40933 67.8453 8.47066 68.52 8.348C68.5813 8.348 68.6733 8.31733 68.796 8.256L69.164 8.072C70.636 7.21333 71.4333 6.75333 71.556 6.69199C72.5987 6.14 73.4573 5.80267 74.132 5.68C75.42 5.37333 76.2787 5.71066 76.708 6.69199C77.26 8.04133 76.9227 9.66666 75.696 11.568L74.408 13.316C74.1627 13.684 73.9787 13.9907 73.856 14.236L74.316 14.88L74.96 15.892C76.8 17.8547 78.2413 20.1547 79.284 22.792C80.204 25.6133 80.6027 29.0787 80.48 33.188C80.4187 37.236 79.8667 41.56 78.824 46.16C77.6587 51.68 76.0947 56.464 74.132 60.512C72.3533 65.0507 70.2987 68.332 67.968 70.356C64.288 73.484 59.2587 75.6613 52.88 76.888C53.432 76.9493 53.9533 76.98 54.444 76.98C54.5053 76.98 54.6893 76.9493 54.996 76.888C55.548 76.8267 55.8853 76.796 56.008 76.796C56.4987 76.796 56.8973 76.8267 57.204 76.888C57.5107 77.0107 57.756 77.2253 57.94 77.532C58.124 77.8387 58.1853 78.176 58.124 78.544C58.0627 78.9733 57.8173 79.3413 57.388 79.648C57.204 79.7707 56.928 79.924 56.56 80.108C56.1307 80.292 55.5173 80.476 54.72 80.66L54.076 80.844C54.26 80.9053 54.4747 80.9667 54.72 81.028C55.1493 81.212 55.7013 81.396 56.376 81.58C57.0507 81.764 57.4493 81.8867 57.572 81.948H57.756C57.94 82.0093 58.0933 82.04 58.216 82.04C58.5227 82.1627 58.768 82.2853 58.952 82.408C59.1973 82.6533 59.32 82.9293 59.32 83.236C59.3813 83.604 59.2893 83.9107 59.044 84.156C58.86 84.4013 58.584 84.5547 58.216 84.616C57.9707 84.6773 57.7253 84.708 57.48 84.708C57.1733 84.7693 56.7133 84.8 56.1 84.8ZM56.008 77.9H56.1H56.008ZM45.888 78.636H44.784C44.8453 78.9427 44.9067 79.28 44.968 79.648C45.0907 79.2187 45.336 78.912 45.704 78.728C45.7653 78.728 45.8267 78.6973 45.888 78.636ZM38.436 80.66C38.4973 80.7213 38.5587 80.752 38.62 80.752C38.5587 80.6907 38.4973 80.66 38.436 80.66ZM38.804 79.188C38.804 78.7587 38.8653 78.4213 38.988 78.176C38.988 78.0533 39.0187 77.9613 39.08 77.9C38.5893 77.8387 38.068 77.808 37.516 77.808C37.2707 77.808 36.9947 77.7773 36.688 77.716C36.9333 78.1453 37.24 78.636 37.608 79.188C37.608 79.2493 37.8227 79.6173 38.252 80.292L38.804 79.188ZM24.544 44.228L24.912 43.768L24.82 43.584C24.7587 43.584 24.728 43.5533 24.728 43.492L24.544 44.044V44.228ZM47.084 46.436L47.452 46.068V45.976C46.164 46.5893 44.7227 46.712 43.128 46.344C42.6373 46.2213 42.1773 46.068 41.748 45.884C42.3 46.3133 42.8827 46.6507 43.496 46.896C43.7413 46.7733 43.956 46.712 44.14 46.712C44.4467 46.6507 44.7227 46.712 44.968 46.896C45.4587 46.896 46.0107 46.804 46.624 46.62L47.084 46.436ZM69.256 50.668C69.44 50.7907 69.6547 50.9133 69.9 51.036L69.992 51.128C70.0533 50.944 70.084 50.76 70.084 50.576C69.8387 50.5147 69.624 50.4533 69.44 50.392C69.3787 50.5147 69.3173 50.6067 69.256 50.668ZM56.284 49.38C54.6893 48.5827 53.432 47.448 52.512 45.976C52.6347 46.4667 52.788 46.9267 52.972 47.356C53.2787 47.7853 53.6773 48.184 54.168 48.552C54.352 48.4907 54.5667 48.5213 54.812 48.644C55.0573 48.7667 55.2413 48.9507 55.364 49.196C55.6707 49.2573 55.9467 49.3187 56.192 49.38H56.284ZM42.116 52.876C42.2387 52.9373 42.392 52.9987 42.576 53.06C42.4533 52.9373 42.3 52.876 42.116 52.876ZM36.688 54.532C36.5653 54.6547 36.4733 54.808 36.412 54.992C36.2893 55.2373 36.1667 55.5133 36.044 55.82C36.044 55.8813 35.9827 56.004 35.86 56.188C35.7987 56.372 35.768 56.5253 35.768 56.648C35.4 57.4453 35.0013 57.9973 34.572 58.304C34.5107 58.3653 34.4493 58.4267 34.388 58.488C34.3267 58.488 34.2653 58.488 34.204 58.488C33.8973 59.04 33.4987 59.4387 33.008 59.684C32.824 59.8067 32.64 59.8373 32.456 59.776C32.2107 59.7147 32.088 59.5613 32.088 59.316C32.0267 59.1933 32.0267 59.0093 32.088 58.764V58.672C32.1493 58.5493 32.18 58.4573 32.18 58.396V58.212C32.1187 57.844 32.0267 57.4147 31.904 56.924H31.72L31.168 56.556L30.984 56.464C30.984 56.4027 30.9533 56.3107 30.892 56.188L30.616 55.728C30.248 55.1147 29.9413 54.624 29.696 54.256C29.328 53.6427 28.9907 53.152 28.684 52.784C27.4573 52.416 26.476 52.3853 25.74 52.692C25.372 52.876 25.0653 53.1213 24.82 53.428C24.5747 53.7347 24.3293 54.1947 24.084 54.808C23.9 55.176 23.7773 55.452 23.716 55.636C23.6547 55.7587 23.5627 55.8813 23.44 56.004C23.44 56.0653 23.4093 56.1267 23.348 56.188L23.256 56.28C22.888 57.2 22.52 57.752 22.152 57.936C21.9067 58.0587 21.6613 58.0893 21.416 58.028C21.232 57.9667 21.1093 57.844 21.048 57.66C20.9253 57.476 20.8333 57.1693 20.772 56.74V56.28V55.82C20.7107 55.5133 20.68 55.3293 20.68 55.268C20.312 54.5933 19.8827 54.1333 19.392 53.888C18.84 53.704 18.1653 53.6733 17.368 53.796C17 53.8573 16.6933 53.9493 16.448 54.072C16.3867 54.1947 16.3253 54.2867 16.264 54.348C15.9573 54.7773 15.6507 55.4213 15.344 56.28C15.2213 57.016 15.252 57.7827 15.436 58.58C16.0493 59.2547 16.6933 59.8373 17.368 60.328C17.7973 60.696 18.3493 61.0333 19.024 61.34C20.9867 61.4013 22.1213 61.4627 22.428 61.524C22.98 61.6467 23.7773 62.0147 24.82 62.628C25.6787 63.1187 26.3533 63.4253 26.844 63.548C27.4573 63.6707 28.2547 63.6093 29.236 63.364L31.812 62.72C33.2227 62.536 35.0627 62.6893 37.332 63.18C39.6627 63.732 41.3493 63.9773 42.392 63.916C43.0053 63.916 43.772 63.64 44.692 63.088C45.8573 62.352 46.7773 61.9533 47.452 61.892C48.2493 61.8307 49.4453 61.8307 51.04 61.892C52.5733 61.9533 53.708 61.9227 54.444 61.8C55.0573 61.6773 55.824 61.34 56.744 60.788C57.848 60.052 58.7067 59.592 59.32 59.408L59.688 59.316C59.6267 59.2547 59.596 59.1933 59.596 59.132C59.5347 58.948 59.504 58.672 59.504 58.304V57.936V57.568C59.504 57.5067 59.4733 57.4453 59.412 57.384C59.228 57.1387 59.0747 56.7707 58.952 56.28V56.004C58.4613 55.3293 57.848 54.808 57.112 54.44C56.0693 54.1947 54.8427 54.2867 53.432 54.716C51.1627 55.5133 49.6293 56.5253 48.832 57.752C48.7707 57.936 48.6787 58.1507 48.556 58.396C48.372 58.7027 48.2493 58.9173 48.188 59.04C47.9427 59.408 47.636 59.6227 47.268 59.684L47.176 59.776C47.1147 59.8373 47.084 59.9293 47.084 60.052L46.9 60.42C46.6547 60.9107 46.3173 61.1253 45.888 61.064C45.52 61.0027 45.3053 60.788 45.244 60.42C45.244 60.2973 45.2747 60.144 45.336 59.96C45.336 59.8987 45.336 59.8373 45.336 59.776C45.3973 59.7147 45.428 59.6533 45.428 59.592V59.5C45.428 59.316 45.3973 59.132 45.336 58.948C45.2747 58.8867 45.244 58.7947 45.244 58.672C45.1827 58.488 45.0907 58.2427 44.968 57.936L44.692 56.74C43.8947 55.0227 42.7907 54.072 41.38 53.888C39.908 53.6427 38.712 53.6427 37.792 53.888C37.5467 54.0107 37.2707 54.164 36.964 54.348L36.688 54.532ZM32.456 54.532H32.548C32.18 53.06 31.5973 52.0787 30.8 51.588C30.6773 51.5267 30.5853 51.4653 30.524 51.404C30.4627 51.3427 30.4013 51.312 30.34 51.312C30.708 51.7413 31.1067 52.324 31.536 53.06C31.8427 53.428 32.1493 53.9187 32.456 54.532ZM11.204 42.756V42.388L11.112 42.756H11.204ZM14.608 47.632L14.7 47.54L14.516 47.356L14.608 47.632ZM15.896 49.472L15.62 49.84L15.896 49.656V49.564V49.472ZM27.488 46.896L27.672 46.712L27.488 46.62V46.804V46.896ZM38.16 46.528L38.804 46.068C38.4973 45.7 38.252 45.332 38.068 44.964C38.0067 45.0867 37.9147 45.2093 37.792 45.332C37.9147 45.4547 38.0067 45.608 38.068 45.792C38.1293 45.976 38.16 46.1293 38.16 46.252V46.344V46.528ZM64.104 48.092L64.84 47.724L65.116 47.632C65.0547 47.5093 64.9933 47.3253 64.932 47.08L64.84 46.62C64.5947 47.0493 64.38 47.448 64.196 47.816L64.104 48.092ZM46.164 53.888H46.072C46.1333 54.072 46.1947 54.2867 46.256 54.532C46.3787 54.716 46.44 54.8693 46.44 54.992L46.532 55.084L47.636 54.256C47.5747 54.256 47.4827 54.2867 47.36 54.348C47.2987 54.348 47.2373 54.348 47.176 54.348C46.8693 54.4093 46.5933 54.3173 46.348 54.072L46.164 53.888ZM34.664 52.968L34.572 53.06H34.388L34.48 53.244L34.848 53.06C34.7867 53.06 34.7253 53.0293 34.664 52.968ZM54.628 20.4C57.388 20.8907 59.5347 21.412 61.068 21.964C61.436 22.0867 61.6507 22.332 61.712 22.7L62.448 22.792C62.816 22.8533 62.9693 23.068 62.908 23.436C62.8467 23.804 62.632 23.9573 62.264 23.896L61.528 23.712C61.16 24.08 60.7613 24.172 60.332 23.988C59.1053 23.62 56.376 23.0067 52.144 22.148H51.868C51.7453 22.148 51.592 22.1173 51.408 22.056C50.672 21.9947 50.1507 21.7493 49.844 21.32C49.5987 20.952 49.568 20.584 49.752 20.216C49.8133 20.032 49.9053 19.9093 50.028 19.848C50.1507 19.7253 50.2427 19.6333 50.304 19.572C50.4267 19.5107 50.6107 19.4493 50.856 19.388C51.2853 19.204 51.9907 18.9587 52.972 18.652C53.34 18.5293 53.984 18.284 54.904 17.916C55.824 17.548 56.56 17.272 57.112 17.088C57.7253 16.904 58.4613 16.72 59.32 16.536C60.1787 16.352 60.976 16.26 61.712 16.26C62.448 16.26 62.816 16.628 62.816 17.364C62.816 18.1 62.448 18.468 61.712 18.468C60.4853 18.468 58.124 19.112 54.628 20.4ZM41.38 20.86C41.38 20.7987 41.4107 20.7373 41.472 20.676C41.7787 20.124 42.1773 19.7867 42.668 19.664C43.22 19.5413 43.772 19.6027 44.324 19.848C45.8573 20.7067 46.716 22.6387 46.9 25.644H47.268C52.7267 25.7667 57.6027 26.656 61.896 28.312L62.08 28.404C66.312 29.8147 69.348 31.5013 71.188 33.464C71.556 33.832 71.832 34.2 72.016 34.568C72.016 33.28 71.9853 32.0533 71.924 30.888V30.796C71.8013 30.5507 71.8013 30.3053 71.924 30.06C71.8013 29.0173 71.6787 28.0667 71.556 27.208C71.004 26.7787 70.912 26.288 71.28 25.736V25.644C71.2187 25.2147 71.1267 24.816 71.004 24.448C70.7587 24.264 70.6053 24.0493 70.544 23.804C70.4213 23.5587 70.3907 23.2827 70.452 22.976L69.44 21.228C69.1333 21.1053 68.888 20.952 68.704 20.768C68.4587 20.4613 68.3667 20.1547 68.428 19.848C66.956 18.008 65.208 16.4747 63.184 15.248C62.264 15.4933 61.4667 15.4627 60.792 15.156C60.424 14.972 60.1787 14.696 60.056 14.328C59.9947 14.144 59.9947 13.96 60.056 13.776C59.688 13.592 59.2893 13.408 58.86 13.224C57.756 13.408 56.7747 13.3467 55.916 13.04C55.8547 13.04 55.7627 13.0093 55.64 12.948C55.3947 12.8253 55.2413 12.6107 55.18 12.304C55.1187 12.2427 55.088 12.1813 55.088 12.12L53.8 11.752C53.248 11.8133 52.7573 11.8747 52.328 11.936C51.7147 11.9973 51.1933 11.9973 50.764 11.936C50.1507 11.8747 49.6907 11.66 49.384 11.292C49.2 11.1693 49.0773 10.9853 49.016 10.74L46.532 10.372C44.9373 10.6173 43.7107 10.556 42.852 10.188C42.7293 10.1267 42.6373 10.0653 42.576 10.004C39.5707 9.75866 36.6267 9.69733 33.744 9.82C26.9973 10.1267 21.4467 11.3533 17.092 13.5C15.988 14.2973 14.9453 14.9413 13.964 15.432H13.872C11.7253 17.088 10.2227 19.02 9.364 21.228C9.05733 22.0253 8.78133 22.8227 8.536 23.62C8.65867 23.7427 8.75067 23.8653 8.812 23.988C9.05733 24.2947 9.088 24.6627 8.904 25.092C8.78133 25.46 8.536 25.8587 8.168 26.288C8.04533 27.2693 7.984 30.152 7.984 34.936C7.984 41.0693 8.47467 46.0067 9.456 49.748H9.64V49.656C8.72 46.4053 8.444 43.308 8.812 40.364C9.364 35.764 12.5227 32.1453 18.288 29.508C22.5813 27.5453 27.8253 26.288 34.02 25.736C34.572 24.5707 35.216 23.5587 35.952 22.7C37.5467 20.86 39.1107 20.1547 40.644 20.584C40.8893 20.7067 41.1347 20.7987 41.38 20.86ZM43.312 21.872C43.0053 22.3627 42.852 23.2827 42.852 24.632V24.724C42.852 24.7853 42.8213 24.8773 42.76 25C42.76 25.1227 42.7293 25.2453 42.668 25.368C42.6067 25.368 42.576 25.3987 42.576 25.46H44.692C44.5693 23.62 44.1093 22.424 43.312 21.872ZM30.524 4.11599L30.8 4.024H30.524V4.11599ZM34.664 6.23199L36.412 5.68L37.24 5.40399C36.9333 5.40399 36.596 5.37333 36.228 5.312C35.9213 5.55733 35.492 5.80266 34.94 6.048L34.664 6.23199ZM50.856 7.152C51.3467 6.968 51.7453 6.876 52.052 6.876L51.316 6.69199C51.316 6.75333 51.2853 6.81466 51.224 6.876C51.1013 6.93733 50.9787 7.02933 50.856 7.152ZM56.836 8.9L59.228 8.348L58.124 7.97999C57.756 8.28666 57.3267 8.59333 56.836 8.9ZM71.924 11.752C72.2307 11.6907 72.5373 11.66 72.844 11.66L73.304 11.108L73.764 10.464L73.488 10.648L71.924 11.752ZM71.372 16.076C71.74 16.0147 72.0773 15.984 72.384 15.984L72.108 15.616L71.372 16.076ZM73.028 18.744C73.3347 18.6827 73.58 18.6213 73.764 18.56H74.04L73.672 17.916V18.008C73.5493 18.192 73.4267 18.3453 73.304 18.468L73.028 18.744ZM71.832 21.136C71.4027 21.1973 71.0347 21.228 70.728 21.228C70.8507 21.4733 70.9733 21.688 71.096 21.872C71.28 21.6267 71.5253 21.3813 71.832 21.136ZM69.348 18.468C69.164 18.468 68.98 18.4373 68.796 18.376H68.612L68.98 18.836L69.348 18.468ZM67.876 15.892C67.692 16.0147 67.5387 16.076 67.416 16.076C67.048 16.1987 66.7413 16.26 66.496 16.26C66.864 16.628 67.2627 16.996 67.692 17.364C67.6307 17.3027 67.6 17.2413 67.6 17.18C67.5387 16.7507 67.6307 16.3213 67.876 15.892ZM42.208 8.624L41.564 8.80799C41.748 8.80799 41.932 8.83866 42.116 8.9C42.116 8.77733 42.1467 8.68533 42.208 8.624ZM26.2 8.992C25.5867 9.29866 25.0653 9.57466 24.636 9.82C25.188 9.69733 25.7707 9.57466 26.384 9.452C26.2613 9.268 26.2 9.11466 26.2 8.992ZM9.916 10.372C9.732 10.4333 9.57867 10.464 9.456 10.464L9.548 10.74L9.916 10.372ZM9.732 17.18C9.79333 17.2413 9.85467 17.272 9.916 17.272L10.192 17.548C10.8667 16.6893 11.664 15.892 12.584 15.156C12.5227 15.0947 12.4613 15.0027 12.4 14.88C12.216 15.064 12.0013 15.2173 11.756 15.34L9.732 17.18ZM6.236 23.988H6.328C6.38933 23.988 6.48133 23.9573 6.604 23.896C6.84933 23.7733 7.00267 23.6813 7.064 23.62C7.248 23.5587 7.40133 23.4973 7.524 23.436L7.708 22.516L6.236 23.988ZM6.512 28.036H6.88V27.576L6.604 27.852L6.512 28.036ZM5.776 32.268C6.26667 32.3907 6.63467 32.6053 6.88 32.912V31.164L5.776 32.268ZM5.224 37.052C5.53067 36.9293 5.868 36.868 6.236 36.868C6.48133 36.868 6.696 36.9293 6.88 37.052V34.936L6.696 35.304C6.45067 35.672 5.96 36.2547 5.224 37.052ZM6.604 46.62C6.788 46.62 6.94133 46.6507 7.064 46.712C7.37067 46.8347 7.616 47.0187 7.8 47.264C7.67733 46.712 7.58533 46.1293 7.524 45.516L6.88 46.344L6.604 46.62ZM5.5 51.772L6.144 51.404C7.37067 50.668 8.10667 50.2387 8.352 50.116H8.444L8.076 48.644L7.892 49.012C7.76933 49.3187 7.616 49.5947 7.432 49.84C7.12533 50.2693 6.66533 50.76 6.052 51.312L5.5 51.772ZM9.456 53.888C9.51733 53.888 9.57867 53.9187 9.64 53.98C9.70133 53.98 9.76267 53.98 9.824 53.98L9.64 53.704L9.456 53.888ZM11.204 59.96C11.6333 59.776 12.0933 59.5307 12.584 59.224C12.768 59.1627 12.8907 59.1013 12.952 59.04L12.676 58.672C11.8787 57.752 11.1733 56.74 10.56 55.636L10.468 55.36C10.468 55.544 10.4067 55.7893 10.284 56.096C10.2227 56.28 10.1307 56.5253 10.008 56.832L10.56 57.2C11.112 57.5067 11.4493 57.936 11.572 58.488C11.6333 58.9787 11.5107 59.4387 11.204 59.868V59.96ZM13.136 63.18L13.596 62.996L15.252 62.168L14.7 61.616L14.332 62.168C14.0253 62.4747 13.6267 62.812 13.136 63.18ZM20.864 66.584C21.5387 66.2773 21.9373 66.0933 22.06 66.032C22.1213 65.9707 22.244 65.9093 22.428 65.848L22.704 65.664C22.3973 65.6027 22.1213 65.5413 21.876 65.48L21.784 65.572C21.6 65.8173 21.3547 66.0933 21.048 66.4L20.864 66.584ZM24.176 67.872C24.6667 67.688 25.3107 67.412 26.108 67.044L27.58 66.4C26.66 66.3387 25.8013 66.2467 25.004 66.124C25.0653 66.308 25.0653 66.5227 25.004 66.768C24.9427 66.8293 24.8813 66.9213 24.82 67.044C24.636 67.3507 24.4213 67.6267 24.176 67.872ZM31.352 67.688C32.2107 67.3813 33.1 67.0747 34.02 66.768L32.088 66.676C32.088 66.7373 32.0573 66.8293 31.996 66.952C31.9347 67.136 31.812 67.2893 31.628 67.412C31.5667 67.5347 31.4747 67.6267 31.352 67.688ZM38.436 67.228L38.896 67.044H38.436V67.228ZM42.024 68.056C42.8213 67.688 43.5573 67.3813 44.232 67.136H42.392C42.4533 67.4427 42.3613 67.7187 42.116 67.964L42.024 68.056ZM48.924 68.332C50.1507 67.7187 51.1627 67.2587 51.96 66.952C51.592 66.952 51.2547 66.9827 50.948 67.044C50.4573 67.044 49.936 67.0747 49.384 67.136C49.384 67.504 49.2307 67.9027 48.924 68.332ZM58.308 66.952C58.676 66.6453 59.0747 66.3387 59.504 66.032L60.24 65.572C58.7067 66.0013 56.9587 66.3693 54.996 66.676C55.18 66.7373 55.3027 66.86 55.364 67.044C55.4867 67.1667 55.548 67.32 55.548 67.504L55.64 67.412C56.008 67.228 56.3147 67.1053 56.56 67.044C56.744 66.9827 56.8973 66.952 57.02 66.952H57.48C57.664 67.0133 57.8173 67.0747 57.94 67.136L58.308 66.952ZM50.212 73.668L49.476 74.22L48.648 74.68C49.6293 74.5573 50.58 74.404 51.5 74.22C51.4387 74.22 51.3467 74.22 51.224 74.22H50.948C50.6413 74.1587 50.396 74.0053 50.212 73.76V73.668ZM43.864 73.668C42.208 74.5267 40.736 75.048 39.448 75.232H40.736H42.024V75.14C42.0853 75.0173 42.1773 74.8947 42.3 74.772C42.4227 74.6493 42.6067 74.496 42.852 74.312C42.9747 74.2507 43.1893 74.128 43.496 73.944C43.68 73.8213 43.8027 73.7293 43.864 73.668ZM37.332 72.84C35.7373 73.6373 34.3267 74.2813 33.1 74.772L36.872 75.14C36.7493 75.0173 36.6267 74.864 36.504 74.68C36.32 74.3733 36.32 74.036 36.504 73.668C36.5653 73.5453 36.6573 73.4227 36.78 73.3C36.9027 73.1773 37.0867 73.024 37.332 72.84ZM27.764 71.552C25.74 72.3493 24.6053 72.7787 24.36 72.84C25.832 73.3307 27.3347 73.7293 28.868 74.036L29.604 74.22C29.604 74.0973 29.6347 74.0053 29.696 73.944C29.7573 73.76 29.8493 73.6067 29.972 73.484C30.0333 73.4227 30.064 73.392 30.064 73.392C29.6347 73.5147 29.1747 73.6067 28.684 73.668H28.316C28.0093 73.668 27.7333 73.5453 27.488 73.3C27.0587 72.8707 27.0587 72.38 27.488 71.828L27.764 71.552ZM18.656 69.804C18.2267 69.9267 17.8587 69.988 17.552 69.988H17.092C18.2573 70.6013 19.484 71.1533 20.772 71.644C20.8333 71.46 20.9253 71.3067 21.048 71.184C21.1707 71.1227 21.2627 71.0307 21.324 70.908C20.4653 71.0307 19.76 70.908 19.208 70.54C18.9013 70.356 18.7173 70.1107 18.656 69.804ZM15.344 67.964C14.7307 68.148 14.2093 68.1787 13.78 68.056C14.332 68.424 14.884 68.7613 15.436 69.068L15.344 68.976C15.2213 68.6693 15.2213 68.332 15.344 67.964ZM13.044 65.756C12.5533 65.94 12.124 66.0933 11.756 66.216C11.572 66.216 11.4187 66.2467 11.296 66.308L12.584 67.228C12.584 67.1667 12.5533 67.0747 12.492 66.952C12.4307 66.584 12.5227 66.2467 12.768 65.94C12.8293 65.8787 12.9213 65.8173 13.044 65.756ZM10.652 62.352C10.1 62.536 9.64 62.628 9.272 62.628C9.088 62.6893 8.904 62.6893 8.72 62.628H8.352C8.59733 63.0573 8.87333 63.4867 9.18 63.916C9.24133 63.8547 9.272 63.7933 9.272 63.732C9.456 63.4867 9.67067 63.2413 9.916 62.996C10.1 62.812 10.3453 62.5973 10.652 62.352ZM7.616 60.88L7.34 60.788L7.524 61.064C7.524 61.0027 7.55467 60.9413 7.616 60.88ZM7.064 57.108C6.81867 57.108 6.57333 57.0773 6.328 57.016C6.20533 57.016 6.08267 56.9547 5.96 56.832C6.02133 57.1387 6.11333 57.4453 6.236 57.752C6.35867 57.6293 6.54267 57.476 6.788 57.292L7.064 57.108ZM5.868 54.072C5.684 54.1947 5.5 54.2867 5.316 54.348L5.408 54.532L5.868 54.072ZM5.5 48.736H4.856L4.304 48.552C4.304 48.736 4.33467 48.9507 4.396 49.196C4.45733 49.4413 4.488 49.5947 4.488 49.656C4.91733 49.288 5.25467 48.9813 5.5 48.736ZM5.96 48.092L5.868 48.184C5.92933 48.184 5.96 48.1533 5.96 48.092ZM4.12 40.18C3.752 40.2413 3.41467 40.272 3.108 40.272C3.108 40.5787 3.13867 40.8853 3.2 41.192L4.12 40.18ZM3.844 35.396H3.384H3.292C3.23067 35.6413 3.2 35.856 3.2 36.04L3.844 35.396ZM74.776 25.644L75.236 25.46C75.5427 25.3373 75.8187 25.2453 76.064 25.184C76.3093 25.1227 76.524 25.1227 76.708 25.184C76.6467 24.5707 76.5853 24.0187 76.524 23.528C76.4627 22.976 76.0947 22.056 75.42 20.768C75.2973 20.952 75.144 21.1667 74.96 21.412C74.776 21.596 74.5307 21.8107 74.224 22.056C74.408 21.9947 74.592 21.964 74.776 21.964C74.96 21.964 75.1133 21.9947 75.236 22.056C75.5427 22.1787 75.788 22.3933 75.972 22.7C76.0947 22.9453 76.1253 23.1907 76.064 23.436L75.88 23.712L75.788 23.988C75.7267 24.1107 75.604 24.2333 75.42 24.356L75.236 24.632C75.236 24.816 75.1747 25 75.052 25.184L74.776 25.644ZM76.34 30.796C76.524 30.796 76.708 30.8573 76.892 30.98V30.336C76.708 30.52 76.524 30.6733 76.34 30.796ZM75.604 43.768C75.6653 43.8293 75.7573 43.86 75.88 43.86V43.492L75.696 43.676L75.604 43.768ZM75.052 47.632L75.236 47.816V47.724V47.448L75.052 47.632ZM70.636 58.212H71.28C71.832 58.212 72.2613 58.2427 72.568 58.304C73.4267 55.8507 74.1627 53.0907 74.776 50.024C74.5307 50.2693 74.1627 50.5147 73.672 50.76C72.936 51.1893 72.5067 51.4347 72.384 51.496C72.3227 51.6187 72.2 51.8947 72.016 52.324C72.3227 52.3853 72.568 52.5387 72.752 52.784C73.12 53.336 73.0587 53.9187 72.568 54.532C72.4453 54.716 72.292 54.9 72.108 55.084C72.2307 55.3293 72.292 55.6053 72.292 55.912C72.2307 56.4027 72.016 56.8627 71.648 57.292C71.5253 57.476 71.2493 57.7213 70.82 58.028L70.636 58.212ZM71.372 60.42H71.28C70.6053 60.42 70.1147 60.3587 69.808 60.236C69.3787 60.1133 69.0413 59.9293 68.796 59.684C68.244 60.6653 67.6613 61.4627 67.048 62.076C67.232 62.1373 67.3853 62.26 67.508 62.444C67.8147 62.1987 68.428 61.8613 69.348 61.432C70.2067 61.064 70.7893 60.788 71.096 60.604C71.2187 60.5427 71.3107 60.4813 71.372 60.42ZM72.292 49.012C72.2307 48.8893 72.2 48.7973 72.2 48.736L72.108 49.104L72.292 49.012ZM73.764 39.72V39.628C73.396 39.5053 73.1507 39.2907 73.028 38.984C72.9667 40.5787 72.8747 42.1427 72.752 43.676L72.384 46.344V47.172C72.5067 46.8653 72.7827 46.5587 73.212 46.252C73.3347 46.1293 73.4573 46.0373 73.58 45.976C73.7027 45.9147 73.7947 45.8533 73.856 45.792L73.948 45.7C73.58 45.3933 73.304 44.964 73.12 44.412C72.9973 43.86 73.12 43.3387 73.488 42.848C73.6107 42.6027 73.856 42.3267 74.224 42.02L74.408 41.836H74.316C73.948 41.5293 73.7333 41.1613 73.672 40.732C73.6107 40.364 73.6413 40.0267 73.764 39.72ZM73.856 36.776C73.7947 36.776 73.7333 36.7453 73.672 36.684C73.488 36.6227 73.304 36.5307 73.12 36.408V37.696C73.2427 37.3893 73.488 37.0827 73.856 36.776ZM73.58 33.74H73.488C73.3653 33.74 73.2427 33.7093 73.12 33.648V34.2L73.488 33.832L73.58 33.74ZM73.948 28.312C73.8253 28.3733 73.672 28.404 73.488 28.404C73.2427 28.404 73.028 28.3733 72.844 28.312C72.844 28.5573 72.8747 28.8027 72.936 29.048L73.212 28.864C73.2733 28.8027 73.396 28.7107 73.58 28.588L73.948 28.312ZM34.756 86.824V86.916C34.6947 86.9773 34.664 87.0387 34.664 87.1C34.664 87.1613 34.6333 87.2227 34.572 87.284C34.5107 87.468 34.388 87.5907 34.204 87.652C33.9587 87.836 33.6827 87.8973 33.376 87.836C33.192 87.7747 33.008 87.652 32.824 87.468V87.56C33.008 88.3573 33.2227 88.8173 33.468 88.94C34.3267 89.2467 34.94 89.308 35.308 89.124C35.5533 89.0013 35.7373 88.756 35.86 88.388C35.9827 88.1427 36.1053 87.6213 36.228 86.824V86.64C35.9213 86.7627 35.6147 86.7627 35.308 86.64L34.94 86.456C34.94 86.5787 34.9093 86.6707 34.848 86.732L34.756 86.824ZM35.124 80.2C35.492 80.384 35.7987 80.6907 36.044 81.12H36.228L35.676 80.292C35.3693 79.74 35.0933 79.28 34.848 78.912V79.464C35.032 79.648 35.124 79.8933 35.124 80.2ZM40.276 85.076C40.092 85.3213 39.8467 85.5053 39.54 85.628C39.4173 85.6893 39.2947 85.72 39.172 85.72C39.2947 85.904 39.3867 86.1493 39.448 86.456C39.5093 86.64 39.5707 86.7933 39.632 86.916C39.6933 87.1 39.724 87.2227 39.724 87.284C39.7853 87.4067 39.816 87.4987 39.816 87.56C40.1227 87.9893 40.552 88.3267 41.104 88.572C41.656 88.8173 42.116 88.848 42.484 88.664C42.852 88.5413 43.0973 88.0813 43.22 87.284C43.2813 87.1613 43.312 87.008 43.312 86.824C43.0667 87.4373 42.6373 87.6827 42.024 87.56C41.5333 87.4373 41.2573 87.1 41.196 86.548C41.0733 86.548 40.9813 86.5173 40.92 86.456C40.736 86.3333 40.6133 86.18 40.552 85.996C40.4907 85.996 40.46 85.9653 40.46 85.904C40.46 85.8427 40.4293 85.7813 40.368 85.72C40.368 85.536 40.3373 85.3213 40.276 85.076ZM26.016 84.708H25.832C25.28 84.6467 24.8507 84.4627 24.544 84.156C24.4827 84.34 24.3907 84.4933 24.268 84.616C24.0227 84.984 23.6853 85.352 23.256 85.72C23.7467 85.6587 24.2987 85.5667 24.912 85.444C25.3413 85.3827 25.8013 85.2907 26.292 85.168C26.1693 85.0453 26.0773 84.892 26.016 84.708ZM25.832 81.212C25.0347 81.212 24.36 81.12 23.808 80.936C23.7467 81.0587 23.624 81.1507 23.44 81.212C23.3173 81.3347 23.1333 81.4267 22.888 81.488C22.9493 81.488 22.98 81.5187 22.98 81.58C23.6547 81.6413 24.1453 81.8867 24.452 82.316L24.636 82.132C24.82 82.0093 25.0653 81.856 25.372 81.672L25.924 81.396C25.924 81.3347 25.8933 81.2733 25.832 81.212ZM53.616 86.456C53.8 86.64 53.892 86.8547 53.892 87.1C54.5667 87.1 55.18 87.0693 55.732 87.008L55.18 86.824C54.5667 86.5787 54.1067 86.3333 53.8 86.088C53.8 86.2107 53.7693 86.3027 53.708 86.364C53.708 86.4253 53.6773 86.456 53.616 86.456ZM46.164 84.616C46.0413 84.5547 45.9493 84.4933 45.888 84.432C45.7653 84.3093 45.6733 84.156 45.612 83.972V84.892C45.6733 84.8307 45.7347 84.8 45.796 84.8L46.164 84.616ZM45.612 83.236C45.5507 83.236 45.52 83.2053 45.52 83.144V83.42C45.52 83.3587 45.5507 83.2973 45.612 83.236ZM45.428 80.936C45.3053 80.8133 45.2133 80.6907 45.152 80.568L45.244 81.028H45.336L45.428 80.936ZM14.148 39.26C14.6387 40.364 15.344 41.5293 16.264 42.756C17.184 43.9213 18.0733 44.78 18.932 45.332C19.1773 45.4547 19.392 45.5467 19.576 45.608C19.944 45.5467 20.2813 45.424 20.588 45.24C21.0173 44.9333 21.416 44.6267 21.784 44.32C22.0293 43.768 22.2133 43.0933 22.336 42.296L22.428 41.836C22.428 41.468 22.4893 41.1613 22.612 40.916C22.796 40.6093 23.0107 40.364 23.256 40.18V39.72C23.1947 39.352 23.3173 39.076 23.624 38.892C23.8693 38.8307 24.176 38.8307 24.544 38.892C24.728 38.9533 24.912 39.1067 25.096 39.352C25.28 39.536 25.464 39.7507 25.648 39.996L26.936 41.836V41.928C27.12 42.1733 27.3653 42.4493 27.672 42.756L27.948 43.216C28.7453 44.0747 29.5427 44.6267 30.34 44.872C31.5053 45.24 32.64 45.056 33.744 44.32C34.9093 43.584 35.7987 42.6027 36.412 41.376C36.5347 41.008 36.6573 40.548 36.78 39.996V39.444V39.076C36.8413 38.9533 36.872 38.8613 36.872 38.8C36.9947 38.6773 37.148 38.616 37.332 38.616C37.4547 38.5547 37.5773 38.5853 37.7 38.708C37.7613 38.708 37.8227 38.7387 37.884 38.8C38.1293 39.1067 38.344 39.444 38.528 39.812C38.6507 39.812 38.7733 39.8733 38.896 39.996C39.1413 40.1187 39.3253 40.3333 39.448 40.64C39.5093 40.7627 39.5707 40.9467 39.632 41.192C39.6933 41.3147 39.724 41.5293 39.724 41.836C39.7853 42.0813 39.8467 42.2347 39.908 42.296C39.9693 42.7867 40.0613 43.216 40.184 43.584C40.736 44.32 41.7787 44.872 43.312 45.24C46.3787 45.976 48.5867 44.872 49.936 41.928C49.936 41.8053 49.9667 41.6213 50.028 41.376C50.028 41.3147 50.028 41.2227 50.028 41.1C50.0893 40.916 50.12 40.7627 50.12 40.64C50.1813 40.3333 50.2733 40.088 50.396 39.904C50.5187 39.72 50.672 39.628 50.856 39.628C51.04 39.5667 51.2547 39.5973 51.5 39.72C51.9907 40.1493 52.42 40.7013 52.788 41.376L53.064 41.652C53.248 41.9587 53.432 42.3267 53.616 42.756C53.6773 43.0627 53.7693 43.4 53.892 43.768V43.952C54.076 43.768 54.352 43.8907 54.72 44.32C55.1493 44.7493 55.6093 45.332 56.1 46.068C56.652 46.7427 57.1427 47.2333 57.572 47.54C58.3693 47.6627 59.2893 47.6933 60.332 47.632H60.7C61.3747 47.2027 61.988 46.4973 62.54 45.516C62.8467 44.9027 63.184 44.4427 63.552 44.136C63.552 44.0747 63.5827 44.0133 63.644 43.952L63.736 43.86C63.7973 43.7987 63.828 43.7373 63.828 43.676C64.012 43.4307 64.2573 43.2773 64.564 43.216H64.748C64.748 43.1547 64.7787 43.0933 64.84 43.032C64.9627 42.664 65.0853 42.4187 65.208 42.296C65.3307 42.112 65.484 42.02 65.668 42.02C65.9133 42.02 66.128 42.112 66.312 42.296C66.7413 42.664 67.0787 43.3693 67.324 44.412C67.324 44.5347 67.3547 44.7493 67.416 45.056C67.4773 45.3627 67.508 45.5467 67.508 45.608L67.692 46.16L68.152 47.264L68.336 47.816C68.3973 47.816 68.4587 47.8467 68.52 47.908C68.7653 47.9693 69.072 48.0613 69.44 48.184C69.7467 48.184 70.084 48.1227 70.452 48V47.54C70.7587 43.0627 70.2373 39.352 68.888 36.408C68.2747 35.7333 67.5387 35.2733 66.68 35.028C65.8213 34.7213 64.5333 34.66 62.816 34.844C60.792 35.0893 59.3507 35.12 58.492 34.936C57.6333 34.752 56.652 34.2 55.548 33.28C54.5053 32.36 53.708 31.8387 53.156 31.716C52.1133 31.348 50.7027 31.44 48.924 31.992C45.98 32.7893 44.4467 33.188 44.324 33.188C42.9747 33.372 40.9813 33.1573 38.344 32.544C36.0133 31.9307 34.1733 31.7773 32.824 32.084C32.2107 32.2067 31.3827 32.544 30.34 33.096C29.1133 33.7707 28.224 34.2 27.672 34.384C26.8747 34.568 25.9547 34.568 24.912 34.384C24.7893 34.3227 24.3907 34.2307 23.716 34.108C23.2867 33.9853 22.9187 33.8933 22.612 33.832C20.5267 33.5253 18.5947 33.74 16.816 34.476C15.0987 35.1507 13.8107 36.2853 12.952 37.88C13.32 38.064 13.5347 38.34 13.596 38.708C13.8413 38.8307 14.0253 39.0147 14.148 39.26ZM15.436 17.64C17.092 17.8853 19.4227 17.9773 22.428 17.916C26.0467 17.8547 28.4693 17.8547 29.696 17.916H29.788H30.248C30.5547 17.916 30.8 17.9467 30.984 18.008C31.4747 18.192 31.7507 18.5293 31.812 19.02C31.812 19.3267 31.7813 19.6027 31.72 19.848C31.72 20.1547 31.5973 20.4 31.352 20.584L31.26 20.676L31.076 20.86C30.708 21.1667 30.248 21.4427 29.696 21.688C29.328 21.8107 28.8987 21.964 28.408 22.148C28.2853 22.148 28.1627 22.1787 28.04 22.24C27.9173 22.24 27.8253 22.2707 27.764 22.332C27.7027 22.332 27.6413 22.332 27.58 22.332C26.0467 22.884 22.5813 23.988 17.184 25.644C16.448 25.8893 15.9573 25.6747 15.712 25C15.528 24.264 15.7733 23.804 16.448 23.62L26.844 20.308C26.9053 20.2467 27.1507 20.1547 27.58 20.032C27.212 20.032 25.4947 20.0627 22.428 20.124C19.3613 20.1853 16.908 20.0933 15.068 19.848C14.332 19.7253 14.0253 19.296 14.148 18.56C14.2707 17.824 14.7 17.5173 15.436 17.64ZM34.756 8.44L34.02 8.716H34.848C34.7867 8.65466 34.756 8.56266 34.756 8.44ZM52.052 74.128C55.548 73.392 58.7373 72.3493 61.62 71C61.5587 70.9387 61.528 70.8773 61.528 70.816C61.2213 70.3253 61.252 69.896 61.62 69.528L60.148 70.08L59.504 70.448C57.9093 71.368 56.56 71.9507 55.456 72.196C54.7813 72.6867 54.168 73.0853 53.616 73.392C53.064 73.6987 52.5427 73.944 52.052 74.128ZM53.892 43.952V44.044V43.952Z" fill="#C95644"/>
</svg>
