<svg width="520" height="520" viewBox="0 0 520 520" fill="none" xmlns="http://www.w3.org/2000/svg">
<g style="mix-blend-mode:screen" opacity="0.7">
<circle cx="260" cy="260" r="254.299" stroke="#D9D9D9" stroke-width="9.98756"/>
<path d="M336.059 260C336.059 301.794 302.178 335.675 260.384 335.675C218.59 335.675 184.709 301.794 184.709 260C184.709 218.206 218.59 184.325 260.384 184.325C302.178 184.325 336.059 218.206 336.059 260ZM199.588 260C199.588 293.577 226.807 320.796 260.384 320.796C293.961 320.796 321.18 293.577 321.18 260C321.18 226.423 293.961 199.204 260.384 199.204C226.807 199.204 199.588 226.423 199.588 260Z" fill="#00D1FF"/>
<path d="M258.602 194.141C259.247 192.535 261.521 192.535 262.167 194.141L278.115 233.857C278.39 234.542 279.032 235.008 279.768 235.058L322.469 237.953C324.196 238.07 324.899 240.234 323.57 241.344L290.726 268.785C290.161 269.258 289.915 270.012 290.095 270.727L300.537 312.233C300.959 313.912 299.119 315.249 297.653 314.328L261.405 291.572C260.781 291.18 259.987 291.18 259.363 291.572L223.115 314.328C221.649 315.249 219.809 313.912 220.232 312.233L230.673 270.727C230.853 270.012 230.608 269.258 230.042 268.785L197.198 241.344C195.87 240.234 196.572 238.071 198.3 237.953L241.001 235.058C241.736 235.008 242.378 234.542 242.653 233.857L258.602 194.141Z" fill="#02D2FF"/>
<path fill-rule="evenodd" clip-rule="evenodd" d="M105.56 344.894C105.36 344.894 105.159 344.892 104.959 344.89C104.958 344.89 104.957 344.891 104.957 344.892C104.957 344.893 104.956 344.894 104.955 344.894H79.2714C79.2652 344.894 79.2602 344.889 79.2602 344.883C79.2602 344.877 79.2556 344.872 79.2497 344.872C73.3615 344.503 68.7 339.604 68.7 333.614V236.324C68.7 230.094 73.7431 225.044 79.9642 225.044H105.62C106.869 225.043 108.119 225.081 109.37 225.159C119.651 225.798 129.593 229.084 138.233 234.699C146.874 240.313 153.921 248.066 158.693 257.207C163.465 266.348 165.8 276.568 165.472 286.877C165.144 297.187 162.164 307.237 156.821 316.055C151.477 324.874 143.952 332.162 134.971 337.214C125.991 342.266 115.861 344.911 105.56 344.894ZM92.9633 250.184C91.9015 250.573 91.2285 251.605 91.2285 252.737V317.201C91.2285 318.333 91.9014 319.365 92.9633 319.754C96.9975 321.231 101.273 321.998 105.599 322.005C111.965 322.016 118.226 320.381 123.776 317.258C129.326 314.136 133.977 309.632 137.28 304.182C140.582 298.732 142.424 292.52 142.626 286.148C142.829 279.777 141.386 273.461 138.437 267.811C135.488 262.161 131.132 257.37 125.792 253.9C120.452 250.43 114.307 248.399 107.953 248.004C102.847 247.686 97.7437 248.434 92.9633 250.184Z" fill="#D9D9D9"/>
<path fill-rule="evenodd" clip-rule="evenodd" d="M415.208 344.894C415.408 344.894 415.609 344.892 415.809 344.89C415.81 344.89 415.811 344.891 415.811 344.892C415.811 344.893 415.812 344.894 415.813 344.894H441.497C441.503 344.894 441.508 344.889 441.508 344.883C441.508 344.877 441.513 344.872 441.519 344.872C447.407 344.503 452.068 339.604 452.068 333.614V236.324C452.068 230.094 447.025 225.044 440.804 225.044H415.148C413.9 225.043 412.649 225.081 411.398 225.159C401.117 225.798 391.176 229.084 382.535 234.699C373.894 240.313 366.847 248.066 362.075 257.207C357.303 266.348 354.968 276.568 355.296 286.877C355.624 297.187 358.604 307.237 363.947 316.055C369.291 324.874 376.817 332.162 385.797 337.214C394.777 342.266 404.908 344.911 415.208 344.894ZM427.805 250.184C428.867 250.573 429.54 251.605 429.54 252.737V317.201C429.54 318.333 428.867 319.365 427.805 319.754C423.771 321.231 419.496 321.998 415.169 322.005C408.804 322.016 402.543 320.381 396.992 317.258C391.442 314.136 386.791 309.632 383.489 304.182C380.186 298.732 378.345 292.52 378.142 286.148C377.939 279.777 379.382 273.461 382.331 267.811C385.281 262.161 389.636 257.37 394.976 253.9C400.317 250.43 406.461 248.399 412.815 248.004C417.922 247.686 423.025 248.434 427.805 250.184Z" fill="#D9D9D9"/>
<path d="M248.075 403.844C246.617 417.063 241.117 429.411 232.409 438.909C223.093 449.071 210.719 455.301 197.522 456.476C184.324 457.65 171.173 453.691 160.442 445.313C149.711 436.936 142.108 424.692 139.005 410.792C135.903 396.893 137.505 382.253 143.524 369.518C149.542 356.782 159.58 346.79 171.824 341.344C184.068 335.899 197.712 335.359 210.292 339.823C222.08 344.006 232.206 352.324 239.083 363.413C239.865 364.675 239.46 366.319 238.219 367.131L224.797 375.916C223.437 376.806 221.618 376.351 220.71 375C216.491 368.727 210.536 364.018 203.669 361.581C195.897 358.823 187.468 359.157 179.903 362.521C172.339 365.885 166.137 372.059 162.419 379.927C158.701 387.795 157.711 396.839 159.628 405.426C161.544 414.014 166.242 421.578 172.871 426.754C179.501 431.929 187.626 434.375 195.779 433.65C203.933 432.924 211.578 429.075 217.333 422.797C218.649 421.362 219.846 419.822 220.917 418.194C210.361 415.454 200.103 411.609 190.315 406.713C188.926 406.018 188.393 404.313 189.11 402.931L196.319 389.051C197.036 387.67 198.732 387.137 200.123 387.828C213.131 394.289 231.077 399.722 245.549 400.849C247.085 400.968 248.245 402.308 248.075 403.844Z" fill="#D9D9D9"/>
<path fill-rule="evenodd" clip-rule="evenodd" d="M318.82 337.528C331.327 335.463 344.115 338.043 355.078 344.842C362.26 349.297 368.262 353.682 371.853 361.507C372.956 363.912 373.493 366.97 373.262 369.966C373.059 372.609 371.319 376.988 369.394 379.031C350.705 398.867 325.614 411.514 299.259 418.272C303.711 424.98 310.12 429.902 317.472 432.251C324.969 434.645 333 434.221 340.243 431.049C344.652 429.118 348.61 426.237 351.891 422.622L347.206 418.546C346.451 417.89 346.821 416.602 347.803 416.412C351.764 415.647 359.915 413.669 369.385 409.088C373.203 407.242 375.873 405.797 377.739 404.676C379.317 403.727 381.27 404.882 380.903 406.686L374.186 439.735C374.01 440.601 372.967 440.955 372.301 440.375L368.479 437.051C362.916 443.636 356.022 448.85 348.264 452.248C336.544 457.382 323.549 458.067 311.418 454.193C299.288 450.318 288.745 442.114 281.527 430.932C274.309 419.749 270.846 406.255 271.708 392.672C272.569 379.089 277.705 366.227 286.268 356.203C294.832 346.18 306.312 339.593 318.82 337.528ZM292.931 394.231C293.464 385.837 296.637 377.888 301.93 371.693C307.222 365.499 314.317 361.428 322.046 360.152C329.776 358.876 337.679 360.47 344.454 364.672C346.233 365.775 348.238 367.322 347.181 369.966C346.123 372.609 313.82 392.742 292.869 397.927C292.832 396.699 292.853 395.466 292.931 394.231Z" fill="#D9D9D9"/>
<circle cx="260.384" cy="42.9628" r="10.3717" fill="#D9D9D9"/>
<path d="M392.527 96.7419C392.527 102.47 387.884 107.114 382.155 107.114C376.427 107.114 371.784 102.47 371.784 96.7419C371.784 91.0138 376.427 86.3702 382.155 86.3702C387.884 86.3702 392.527 91.0138 392.527 96.7419Z" fill="#D9D9D9"/>
<circle cx="138.613" cy="96.7419" r="10.3717" fill="#D9D9D9"/>
<path d="M156.336 113.755C154.456 112.77 152.244 115.29 153.477 117.017C163.315 130.799 182.178 159.341 186.643 181.335C187.384 184.983 191.804 187.193 194.933 185.176C214.279 172.709 236.607 162.452 260.384 162.452C284.161 162.452 306.489 172.709 325.835 185.176C328.965 187.193 333.395 184.981 334.153 181.336C338.739 159.281 358.064 130.079 367.745 116.46C368.957 114.754 366.837 112.327 364.969 113.272C353.486 119.082 332.837 128.569 320.443 128.569C289.698 128.569 268.511 81.1938 262.283 65.3443C261.619 63.6549 259.076 63.628 258.376 65.303C251.776 81.1114 229.399 128.569 198.627 128.569C186.571 128.569 167.477 119.592 156.336 113.755Z" fill="#D9D9D9"/>
<path d="M389.78 142.327C389.976 141.961 390.285 141.669 390.662 141.493C391.038 141.318 391.461 141.269 391.867 141.355L406.906 144.498C407.204 144.561 407.483 144.693 407.719 144.884C407.956 145.075 408.144 145.32 408.267 145.598C408.391 145.876 408.446 146.179 408.43 146.483C408.413 146.786 408.325 147.082 408.172 147.345L397.281 166.031L411.591 169.022C411.943 169.095 412.267 169.266 412.527 169.515C412.787 169.763 412.972 170.08 413.061 170.429C413.149 170.777 413.138 171.144 413.029 171.486C412.919 171.829 412.716 172.134 412.442 172.367L379.05 200.704C378.707 200.996 378.273 201.159 377.823 201.163C377.373 201.168 376.936 201.014 376.588 200.729C376.239 200.445 376.002 200.046 375.917 199.604C375.833 199.162 375.906 198.705 376.124 198.311L387.496 177.72L375.001 175.109C374.709 175.048 374.435 174.919 374.201 174.734C373.967 174.549 373.779 174.311 373.653 174.041C373.527 173.77 373.465 173.474 373.473 173.175C373.482 172.877 373.559 172.585 373.7 172.321L389.78 142.327Z" fill="#D9D9D9"/>
<path d="M128.583 148.623C128.387 148.257 128.077 147.964 127.701 147.789C127.325 147.614 126.902 147.565 126.496 147.65L111.456 150.794C111.159 150.856 110.88 150.988 110.644 151.179C110.407 151.371 110.219 151.615 110.096 151.893C109.972 152.171 109.916 152.474 109.933 152.778C109.95 153.082 110.038 153.377 110.191 153.64L121.082 172.326L106.772 175.317C106.42 175.391 106.096 175.562 105.836 175.81C105.576 176.059 105.391 176.376 105.302 176.724C105.214 177.073 105.225 177.439 105.334 177.782C105.443 178.124 105.647 178.429 105.921 178.662L139.313 207C139.656 207.292 140.09 207.454 140.54 207.459C140.99 207.463 141.427 207.31 141.775 207.025C142.124 206.74 142.361 206.342 142.445 205.9C142.53 205.458 142.457 205 142.239 204.607L130.867 184.016L143.361 181.404C143.654 181.343 143.928 181.215 144.162 181.03C144.396 180.844 144.584 180.607 144.71 180.336C144.836 180.066 144.898 179.769 144.889 179.471C144.881 179.172 144.803 178.88 144.662 178.617L128.583 148.623Z" fill="#D9D9D9"/>
</g>
</svg>
