<svg width="1350" height="1350" viewBox="0 0 1350 1350" fill="none" xmlns="http://www.w3.org/2000/svg">
<circle cx="675" cy="675" r="662" stroke="#D9D9D9" stroke-width="26"/>
<path d="M873 675C873 783.8 784.8 872 676 872C567.2 872 479 783.8 479 675C479 566.2 567.2 478 676 478C784.8 478 873 566.2 873 675ZM517.733 675C517.733 762.408 588.592 833.267 676 833.267C763.408 833.267 834.267 762.408 834.267 675C834.267 587.592 763.408 516.733 676 516.733C588.592 516.733 517.733 587.592 517.733 675Z" fill="#D9D9D9"/>
<path d="M671.36 503.554C673.04 499.372 678.96 499.372 680.64 503.554L722.159 606.945C722.874 608.726 724.545 609.94 726.46 610.07L837.621 617.608C842.117 617.912 843.947 623.543 840.488 626.433L754.988 697.869C753.515 699.1 752.877 701.065 753.345 702.926L780.527 810.975C781.627 815.346 776.837 818.826 773.02 816.43L678.659 757.189C677.033 756.169 674.967 756.169 673.341 757.189L578.98 816.43C575.163 818.826 570.373 815.346 571.473 810.975L598.655 702.926C599.123 701.065 598.485 699.1 597.012 697.869L511.512 626.433C508.053 623.543 509.883 617.912 514.379 617.608L625.54 610.07C627.455 609.94 629.126 608.726 629.841 606.945L671.36 503.554Z" fill="#A1A1A1"/>
<path fill-rule="evenodd" clip-rule="evenodd" d="M272.957 896C272.435 895.999 271.913 895.995 271.391 895.989C271.388 895.989 271.385 895.992 271.385 895.995C271.385 895.998 271.383 896 271.38 896H204.52C204.504 896 204.491 895.987 204.491 895.971C204.491 895.956 204.479 895.943 204.464 895.942C189.135 894.981 177 882.227 177 866.635V613.365C177 597.147 190.129 584 206.324 584H273.112C276.362 583.998 279.618 584.098 282.875 584.3C309.637 585.965 335.518 594.519 358.012 609.134C380.506 623.75 398.852 643.933 411.274 667.729C423.697 691.526 429.775 718.13 428.921 744.968C428.067 771.806 420.31 797.97 406.4 820.926C392.49 843.882 372.898 862.854 349.52 876.006C326.143 889.158 299.771 896.045 272.957 896ZM240.163 649.446C237.399 650.458 235.647 653.145 235.647 656.092V823.908C235.647 826.855 237.399 829.542 240.163 830.554C250.665 834.398 261.794 836.395 273.057 836.414C289.629 836.442 305.928 832.185 320.376 824.057C334.824 815.928 346.932 804.203 355.529 790.015C364.126 775.827 368.921 759.658 369.448 743.071C369.976 726.484 366.219 710.041 358.542 695.334C350.865 680.627 339.526 668.153 325.624 659.12C311.722 650.087 295.727 644.8 279.186 643.772C265.892 642.945 252.608 644.891 240.163 649.446Z" fill="#D9D9D9"/>
<path fill-rule="evenodd" clip-rule="evenodd" d="M1079.04 896C1079.57 895.999 1080.09 895.995 1080.61 895.989C1080.61 895.989 1080.61 895.992 1080.61 895.995C1080.61 895.998 1080.62 896 1080.62 896H1147.48C1147.5 896 1147.51 895.987 1147.51 895.971C1147.51 895.956 1147.52 895.943 1147.54 895.942C1162.86 894.981 1175 882.227 1175 866.635V613.365C1175 597.147 1161.87 584 1145.68 584H1078.89C1075.64 583.998 1072.38 584.098 1069.13 584.3C1042.36 585.965 1016.48 594.519 993.988 609.134C971.494 623.75 953.148 643.933 940.726 667.729C928.303 691.526 922.225 718.13 923.079 744.968C923.933 771.806 931.69 797.97 945.6 820.926C959.51 843.882 979.102 862.854 1002.48 876.006C1025.86 889.158 1052.23 896.045 1079.04 896ZM1111.84 649.446C1114.6 650.458 1116.35 653.145 1116.35 656.092V823.908C1116.35 826.855 1114.6 829.542 1111.84 830.554C1101.33 834.398 1090.21 836.395 1078.94 836.414C1062.37 836.442 1046.07 832.185 1031.62 824.057C1017.18 815.928 1005.07 804.203 996.471 790.015C987.874 775.827 983.079 759.658 982.552 743.071C982.024 726.484 985.781 710.041 993.458 695.334C1001.14 680.627 1012.47 668.153 1026.38 659.12C1040.28 650.087 1056.27 644.8 1072.81 643.772C1086.11 642.945 1099.39 644.891 1111.84 649.446Z" fill="#D9D9D9"/>
<path d="M643.957 1049.46C640.16 1083.87 625.843 1116.02 603.174 1140.74C578.922 1167.2 546.711 1183.42 512.354 1186.47C477.998 1189.53 443.761 1179.22 415.826 1157.42C387.891 1135.61 368.098 1103.73 360.022 1067.55C351.945 1031.36 356.117 993.255 371.784 960.101C387.452 926.947 413.581 900.934 445.456 886.758C477.331 872.582 512.849 871.178 545.599 882.799C576.285 893.688 602.646 915.341 620.547 944.21C622.584 947.495 621.529 951.773 618.299 953.887L583.358 976.757C579.817 979.075 575.082 977.889 572.718 974.373C561.735 958.041 546.234 945.784 528.357 939.441C508.124 932.261 486.181 933.128 466.488 941.886C446.796 950.644 430.653 966.716 420.974 987.198C411.294 1007.68 408.717 1031.23 413.706 1053.58C418.696 1075.93 430.924 1095.63 448.183 1109.1C465.441 1122.57 486.593 1128.94 507.818 1127.05C529.044 1125.16 548.945 1115.14 563.927 1098.8C567.352 1095.06 570.469 1091.05 573.257 1086.82C545.778 1079.68 519.074 1069.68 493.593 1056.93C489.977 1055.12 488.589 1050.68 490.457 1047.08L509.223 1010.95C511.09 1007.36 515.505 1005.97 519.126 1007.77C552.987 1024.59 599.706 1038.73 637.38 1041.66C641.379 1041.97 644.399 1045.46 643.957 1049.46Z" fill="#D9D9D9"/>
<path fill-rule="evenodd" clip-rule="evenodd" d="M828.121 876.825C860.681 871.449 893.971 878.163 922.51 895.864C941.208 907.46 956.833 918.877 966.179 939.247C969.051 945.508 970.449 953.469 969.849 961.268C969.32 968.149 964.79 979.547 959.778 984.867C911.127 1036.51 845.808 1069.43 777.201 1087.02C788.791 1104.48 805.474 1117.3 824.614 1123.41C844.13 1129.64 865.036 1128.54 883.891 1120.28C895.37 1115.25 905.672 1107.76 914.214 1098.34L902.017 1087.73C900.053 1086.03 901.016 1082.67 903.572 1082.18C913.883 1080.19 935.103 1075.04 959.756 1063.11C969.695 1058.31 976.645 1054.55 981.502 1051.63C985.61 1049.16 990.694 1052.16 989.739 1056.86L972.254 1142.89C971.796 1145.15 969.079 1146.07 967.345 1144.56L957.395 1135.91C942.915 1153.05 924.969 1166.62 904.771 1175.47C874.262 1188.83 840.432 1190.62 808.854 1180.53C777.276 1170.44 749.831 1149.09 731.041 1119.98C712.251 1090.87 703.235 1055.74 705.478 1020.38C707.721 985.018 721.09 951.534 743.383 925.441C765.675 899.347 795.562 882.201 828.121 876.825ZM760.728 1024.44C762.114 1002.58 770.376 981.89 784.153 965.764C797.93 949.639 816.4 939.042 836.522 935.72C856.643 932.397 877.217 936.547 894.854 947.486C899.485 950.358 904.704 954.386 901.952 961.268C899.199 968.149 815.106 1020.56 760.565 1034.06C760.471 1030.86 760.524 1027.65 760.728 1024.44Z" fill="#D9D9D9"/>
<circle cx="676" cy="110" r="27" fill="#D9D9D9"/>
<path d="M1020 250C1020 264.912 1007.91 277 993 277C978.088 277 966 264.912 966 250C966 235.088 978.088 223 993 223C1007.91 223 1020 235.088 1020 250Z" fill="#D9D9D9"/>
<circle cx="359" cy="250" r="27" fill="#D9D9D9"/>
<path d="M405.137 294.289C400.243 291.726 394.484 298.285 397.694 302.781C423.307 338.659 472.41 412.962 484.035 470.216C485.963 479.714 497.469 485.465 505.615 480.215C555.978 447.761 614.102 421.058 676 421.058C737.898 421.058 796.022 447.761 846.384 480.215C854.531 485.465 866.065 479.708 868.038 470.219C879.977 412.804 930.283 336.784 955.485 301.33C958.642 296.889 953.122 290.573 948.26 293.033C918.365 308.157 864.612 332.854 832.347 332.854C752.31 332.854 697.155 209.525 680.942 168.265C679.214 163.867 672.593 163.797 670.773 168.157C653.591 209.31 595.339 332.854 515.232 332.854C483.846 332.854 434.139 309.484 405.137 294.289Z" fill="#D9D9D9"/>
<path d="M1012.85 368.67C1013.36 367.718 1014.16 366.956 1015.14 366.5C1016.12 366.043 1017.22 365.916 1018.28 366.138L1057.43 374.321C1058.21 374.484 1058.93 374.828 1059.55 375.326C1060.16 375.824 1060.65 376.461 1060.97 377.184C1061.3 377.908 1061.44 378.697 1061.4 379.488C1061.35 380.278 1061.12 381.047 1060.73 381.732L1032.37 430.377L1069.63 438.163C1070.54 438.354 1071.39 438.798 1072.06 439.446C1072.74 440.093 1073.22 440.918 1073.45 441.825C1073.68 442.732 1073.66 443.686 1073.37 444.578C1073.09 445.47 1072.56 446.264 1071.84 446.87L984.915 520.64C984.024 521.4 982.894 521.823 981.722 521.835C980.551 521.847 979.412 521.447 978.506 520.705C977.599 519.963 976.981 518.927 976.761 517.776C976.54 516.626 976.731 515.434 977.299 514.41L1006.9 460.806L974.376 454.008C973.615 453.849 972.902 453.516 972.292 453.033C971.683 452.55 971.195 451.932 970.866 451.228C970.537 450.524 970.377 449.752 970.399 448.975C970.42 448.198 970.622 447.437 970.989 446.752L1012.85 368.67Z" fill="#D9D9D9"/>
<path d="M332.89 385.059C332.379 384.107 331.574 383.345 330.595 382.889C329.615 382.432 328.515 382.305 327.457 382.527L288.306 390.71C287.531 390.873 286.806 391.217 286.19 391.715C285.574 392.213 285.085 392.85 284.764 393.573C284.442 394.297 284.297 395.086 284.34 395.877C284.383 396.667 284.614 397.436 285.012 398.121L313.364 446.766L276.111 454.552C275.195 454.743 274.35 455.187 273.674 455.835C272.997 456.482 272.516 457.307 272.285 458.214C272.054 459.121 272.083 460.075 272.368 460.967C272.653 461.859 273.182 462.653 273.896 463.259L360.823 537.029C361.715 537.789 362.845 538.212 364.016 538.224C365.188 538.236 366.326 537.836 367.233 537.094C368.139 536.352 368.757 535.316 368.978 534.165C369.198 533.015 369.008 531.823 368.439 530.799L338.837 477.195L371.362 470.397C372.123 470.238 372.837 469.905 373.446 469.422C374.055 468.939 374.544 468.321 374.873 467.617C375.201 466.913 375.361 466.141 375.34 465.364C375.318 464.587 375.116 463.826 374.749 463.141L332.89 385.059Z" fill="#D9D9D9"/>
</svg>
